<svg width="100" height="100" viewBox="0 0 100 100" fill="none" xmlns="http://www.w3.org/2000/svg">
<g clip-path="url(#clip0_16_157)">
<path d="M0 5.2417V49.4278H9.30234V69.1771L26.583 49.4278H36.9768V31.0558V24.079H43.9535H62.7906V5.2417H0ZM30.5303 36.637H26.2047V32.0603H30.5303V36.637ZM35.8744 24.7069C35.5488 25.4421 34.9674 26.0884 34.1303 26.6464C33.7209 26.9255 33.3021 27.1675 32.8744 27.372C32.4463 27.5769 32.0512 27.7813 31.6883 27.9858C31.3256 28.1907 31.0277 28.4044 30.7953 28.6276C30.5625 28.8509 30.4465 29.1116 30.4465 29.4091H26.1209C26.1209 29.0185 26.1393 28.6325 26.1768 28.2509C26.2137 27.8696 26.3068 27.5069 26.4559 27.1624C26.6047 26.8185 26.8279 26.4884 27.1256 26.1718C27.4229 25.8558 27.8232 25.5673 28.3256 25.3067C28.5301 25.195 28.8232 25.0466 29.2047 24.8603C29.5859 24.6745 29.9672 24.4513 30.3488 24.1905C30.7301 23.9304 31.0604 23.6372 31.3395 23.3114C31.6186 22.986 31.758 22.6276 31.758 22.237C31.758 21.8093 31.5906 21.4696 31.2557 21.2185C30.9207 20.9673 30.5301 20.8417 30.0836 20.8417C29.7486 20.8417 29.4602 20.9071 29.2186 21.037C28.9764 21.1675 28.7672 21.3257 28.5906 21.5114C28.4137 21.6978 28.2648 21.8882 28.1441 22.0835C28.023 22.2788 27.907 22.4421 27.7953 22.5718L24.4186 20.1718C24.902 19.0372 25.6648 18.1532 26.7068 17.5206C27.7484 16.8882 28.9395 16.5718 30.2789 16.5718C30.9859 16.5718 31.7021 16.6741 32.4277 16.8788C33.1533 17.0837 33.8092 17.4091 34.3951 17.8556C34.9812 18.3021 35.4557 18.8882 35.8184 19.6138C36.1811 20.3394 36.3625 21.2233 36.3625 22.2649C36.3627 23.1581 36.1998 23.9722 35.8744 24.7069Z" fill="white"/>
<path d="M43.9535 31.0557V75.0092H73.417L90.6977 94.7584V75.009H100V31.0557H43.9535ZM71.6559 62.2184H66.3535V57.0834H71.6559V62.2184V62.2184ZM71.6559 53.8463H66.3535V42.209H71.6559V53.8463V53.8463Z" fill="white"/>
</g>
<defs>
<clipPath id="clip0_16_157">
<rect width="100" height="100" fill="white"/>
</clipPath>
</defs>
</svg>
