<svg width="22" height="22" viewBox="0 0 22 22" fill="none" xmlns="http://www.w3.org/2000/svg">
<ellipse cx="11.1818" cy="11.402" rx="10.6364" ry="10.5522" fill="#00569D"/>
<g clip-path="url(#clip0_97_523)">
<path d="M16.4999 8.13022C16.1043 8.30236 15.6829 8.41645 15.2435 8.47185C15.6955 8.20409 16.0405 7.78332 16.2027 7.27616C15.7813 7.52545 15.3159 7.70154 14.82 7.79981C14.4198 7.37706 13.8494 7.11523 13.2272 7.11523C12.02 7.11523 11.0481 8.08735 11.0481 9.27909C11.0481 9.45057 11.0627 9.61544 11.0986 9.77241C9.28577 9.68469 7.68168 8.82271 6.60408 7.50962C6.41595 7.83344 6.3056 8.20409 6.3056 8.60309C6.3056 9.3523 6.69449 10.0164 7.27417 10.4009C6.92384 10.3943 6.58015 10.2934 6.28898 10.1345C6.28898 10.1411 6.28898 10.1496 6.28898 10.1582C6.28898 11.2095 7.04483 12.0827 8.036 12.2838C7.85851 12.332 7.66506 12.3551 7.4643 12.3551C7.3247 12.3551 7.18376 12.3471 7.05147 12.3181C7.334 13.1748 8.13572 13.8047 9.089 13.8251C8.34712 14.4009 7.40513 14.7478 6.38537 14.7478C6.20655 14.7478 6.03504 14.7398 5.86353 14.7181C6.82944 15.336 7.97418 15.6889 9.20866 15.6889C13.2212 15.6889 15.415 12.3913 15.415 9.533C15.415 9.43737 15.4117 9.34504 15.407 9.25337C15.8398 8.94868 16.2034 8.56814 16.4999 8.13022Z" fill="white"/>
</g>
<defs>
<clipPath id="clip0_97_523">
<rect width="10.6364" height="10.5522" fill="white" transform="translate(5.86353 6.12598)"/>
</clipPath>
</defs>
</svg>
