<svg width="40" height="40" viewBox="0 0 40 40" fill="none" xmlns="http://www.w3.org/2000/svg">
<path d="M0 10C0 4.47715 4.47715 0 10 0H30C35.5228 0 40 4.47715 40 10V40H0V10Z" fill="#333333"/>
<g clip-path="url(#clip0_77_2)">
<path d="M30 24.4203C30 24.7161 29.8873 25.0131 29.6602 25.2397C29.2076 25.6922 28.4753 25.6922 28.0227 25.2397L20 17.2165L11.9769 25.2397C11.5243 25.6922 10.7913 25.6922 10.3394 25.2397C9.8868 24.7871 9.8868 24.0541 10.3394 23.6016L19.1807 14.7603C19.6333 14.3077 20.3663 14.3077 20.8182 14.7603L29.6601 23.6016C29.8867 23.8275 30 24.1239 30 24.4203Z" fill="white"/>
</g>
<defs>
<clipPath id="clip0_77_2">
<rect width="20" height="20" fill="white" transform="translate(10 30) rotate(-90)"/>
</clipPath>
</defs>
</svg>
