<svg width="20" height="11" viewBox="0 0 20 11" fill="none" xmlns="http://www.w3.org/2000/svg">
<path d="M0.624984 1.25H19.375C19.72 1.25 19.9999 0.969981 19.9999 0.625019C19.9999 0.280005 19.7199 3.52859e-05 19.375 3.52859e-05H0.624984C0.27997 3.52859e-05 0 0.280057 0 0.625019C0 0.969981 0.280022 1.25 0.624984 1.25Z" fill="#00569D"/>
<path d="M19.375 4.37503H0.624984C0.27997 4.37503 0 4.65505 0 5C0 5.34496 0.280022 5.62498 0.624984 5.62498H19.375C19.72 5.62498 19.9999 5.34496 19.9999 5C19.9999 4.65505 19.72 4.37503 19.375 4.37503Z" fill="#00569D"/>
<path d="M19.125 9H6.62498C6.27997 9 6 9.28002 6 9.62498C6 9.97 6.28002 10.25 6.62498 10.25H19.125C19.47 10.25 19.75 9.96995 19.75 9.62498C19.75 9.27997 19.47 9 19.125 9Z" fill="#00569D"/>
</svg>
