<svg width="23" height="22" viewBox="0 0 23 22" fill="none" xmlns="http://www.w3.org/2000/svg">
<ellipse cx="11.4545" cy="11.402" rx="10.6364" ry="10.5522" fill="#00569D"/>
<g clip-path="url(#clip0_97_529)">
<path d="M13.4487 6.12598H9.46009C7.62466 6.12598 6.13623 7.60262 6.13623 9.42353V13.3806C6.13623 15.2015 7.62466 16.6782 9.46009 16.6782H13.4487C15.2842 16.6782 16.7726 15.2015 16.7726 13.3806V9.42353C16.7726 7.60262 15.2842 6.12598 13.4487 6.12598ZM15.7754 13.3806C15.7754 14.6535 14.7317 15.6889 13.4487 15.6889H9.46009C8.17708 15.6889 7.13339 14.6535 7.13339 13.3806V9.42353C7.13339 8.15068 8.17708 7.11524 9.46009 7.11524H13.4487C14.7317 7.11524 15.7754 8.15068 15.7754 9.42353V13.3806Z" fill="white"/>
<path d="M11.4544 8.76392C9.9859 8.76392 8.79529 9.9451 8.79529 11.402C8.79529 12.8588 9.9859 14.04 11.4544 14.04C12.9229 14.04 14.1135 12.8588 14.1135 11.402C14.1135 9.9451 12.9229 8.76392 11.4544 8.76392ZM11.4544 13.0507C10.5383 13.0507 9.79245 12.3108 9.79245 11.402C9.79245 10.4925 10.5383 9.75318 11.4544 9.75318C12.3704 9.75318 13.1163 10.4925 13.1163 11.402C13.1163 12.3108 12.3704 13.0507 11.4544 13.0507Z" fill="white"/>
<path d="M14.3129 8.91763C14.5086 8.91763 14.6673 8.76025 14.6673 8.56612C14.6673 8.37198 14.5086 8.2146 14.3129 8.2146C14.1173 8.2146 13.9586 8.37198 13.9586 8.56612C13.9586 8.76025 14.1173 8.91763 14.3129 8.91763Z" fill="white"/>
</g>
<defs>
<clipPath id="clip0_97_529">
<rect width="10.6364" height="10.5522" fill="white" transform="translate(6.13623 6.12598)"/>
</clipPath>
</defs>
</svg>
