<svg width="22" height="22" viewBox="0 0 22 22" fill="none" xmlns="http://www.w3.org/2000/svg">
<ellipse cx="10.6364" cy="11.402" rx="10.6364" ry="10.5522" fill="#00569D"/>
<g clip-path="url(#clip0_97_513)">
<path d="M15.9545 12.5424V16.4436H13.6748V12.8037C13.6748 11.8893 13.345 11.2652 12.5198 11.2652C11.8899 11.2652 11.5151 11.6858 11.3501 12.0926C11.29 12.238 11.2745 12.4405 11.2745 12.644V16.4436H8.99403C8.99403 16.4436 9.02474 10.2787 8.99403 9.64001H11.2743V10.6044C11.2697 10.6116 11.2637 10.6194 11.2593 10.6264H11.2743V10.6044C11.5772 10.1415 12.1183 9.48018 13.3293 9.48018C14.8297 9.48015 15.9545 10.4526 15.9545 12.5424ZM6.60855 6.36035C5.8284 6.36035 5.31812 6.86802 5.31812 7.53562C5.31812 8.18867 5.81363 8.71175 6.57828 8.71175H6.59351C7.38877 8.71175 7.88335 8.18877 7.88335 7.53562C7.86837 6.86802 7.38877 6.36035 6.60855 6.36035ZM5.45356 16.4436H7.73317V9.64001H5.45356V16.4436Z" fill="white"/>
</g>
<defs>
<clipPath id="clip0_97_513">
<rect width="10.6364" height="10.5522" fill="white" transform="translate(5.31812 6.12598)"/>
</clipPath>
</defs>
</svg>
