<svg width="22" height="22" viewBox="0 0 22 22" fill="none" xmlns="http://www.w3.org/2000/svg">
<ellipse cx="10.9091" cy="11.402" rx="10.6364" ry="10.5522" fill="#00569D"/>
<g clip-path="url(#clip0_97_518)">
<path d="M13.5678 6.12817L12.1885 6.12598C10.6389 6.12598 9.6375 7.14525 9.6375 8.72286V9.92019H8.25069C8.13086 9.92019 8.03381 10.0166 8.03381 10.1355V11.8703C8.03381 11.9892 8.13097 12.0854 8.25069 12.0854H9.6375V16.4629C9.6375 16.5818 9.73454 16.6781 9.85438 16.6781H11.6638C11.7836 16.6781 11.8806 16.5817 11.8806 16.4629V12.0854H13.5022C13.622 12.0854 13.719 11.9892 13.719 11.8703L13.7197 10.1355C13.7197 10.0784 13.6968 10.0237 13.6562 9.98331C13.6156 9.94292 13.5602 9.92019 13.5027 9.92019H11.8806V8.9052C11.8806 8.41735 11.9978 8.16969 12.6384 8.16969L13.5675 8.16936C13.6873 8.16936 13.7843 8.07298 13.7843 7.9542V6.34333C13.7843 6.22467 13.6874 6.12839 13.5678 6.12817Z" fill="white"/>
</g>
<defs>
<clipPath id="clip0_97_518">
<rect width="10.6364" height="10.5521" fill="white" transform="translate(5.59094 6.12598)"/>
</clipPath>
</defs>
</svg>
