<svg width="50" height="50" viewBox="0 0 50 50" fill="none" xmlns="http://www.w3.org/2000/svg">
<g clip-path="url(#clip0_70_79)">
<path d="M40.8453 24.3263L39.5752 14.0087L37.1952 14.3017L37.1961 14.3L32.5819 11.7032C32.0897 11.4263 31.5249 11.3058 30.9625 11.3577L23.6768 12.0316C22.7812 12.1144 21.9809 12.6254 21.529 13.4031L16.3939 22.2418C16.0147 22.8944 16.3123 23.7314 17.0185 23.9981L17.2285 24.0774C17.6326 24.2301 18.048 24.3184 18.4631 24.353L17.8124 24.9197L16.5107 26.0539L12.8082 29.2121C12.1492 29.7862 12.0807 30.7852 12.6548 31.4443L13.0304 31.8745C13.7677 32.72 15.051 32.8078 15.8981 32.0703L17.3131 33.6933C17.7732 34.2216 18.4472 34.4553 19.0947 34.3756C19.4839 34.3278 19.8636 34.1664 20.1807 33.8891L21.5941 35.5122C22.0559 36.0419 22.7298 36.274 23.3773 36.1944C23.7665 36.1464 24.1463 35.9866 24.4635 35.7094L25.2316 36.3733C25.9691 37.2202 27.2539 37.3078 28.101 36.5703L29.1452 35.6593L37.9241 28.8222L37.9335 28.8135L41.3972 28.8101L40.8453 24.3263Z" fill="#F29F5C"/>
<path d="M37.083 26.1555L37.0735 26.1642L28.2946 33.0013L27.2504 33.9123C26.4034 34.6498 25.1186 34.5622 24.3811 33.7152L23.6129 33.0514C23.2957 33.3286 22.9158 33.4885 22.5268 33.5363C21.8792 33.616 21.2054 33.3839 20.7436 32.8542L19.3301 31.2311C19.0129 31.5083 18.6332 31.6696 18.2442 31.7176C17.5966 31.7973 16.9226 31.5637 16.4625 31.0353L15.0475 29.4122C14.3223 30.0437 13.2782 30.0683 12.5298 29.532C12.1461 30.1107 12.1767 30.8951 12.6551 31.4443L13.0307 31.8745C13.768 32.72 15.0513 32.8078 15.8984 32.0703L17.3134 33.6933C17.7735 34.2217 18.4475 34.4554 19.095 34.3757C19.4842 34.3278 19.8638 34.1665 20.181 33.8891L21.5945 35.5124C22.0562 36.0421 22.7301 36.2742 23.3776 36.1945C23.7668 36.1466 24.1466 35.9868 24.4638 35.7095L25.2319 36.3734C25.9694 37.2204 27.2542 37.308 28.1013 36.5705L29.1455 35.6595L37.9244 28.8224L37.9338 28.8137L41.3975 28.8103L41.0143 25.6974L37.083 26.1555Z" fill="#D37D42"/>
<path d="M38.6816 30.6183L33.978 26.5627L32.67 25.4357L31.7341 24.6297L27.71 21.161L28.1747 17.2049C28.3319 15.8669 27.4897 14.6143 26.1912 14.255L17.4193 11.8278C16.4912 11.571 15.5102 12.0016 15.0711 12.8587L13.968 15.0121L9.23289 14.6907L8.02001 25.0152L7.49286 29.502L12.102 29.8086L12.1116 29.8173L21.7407 38.1173L22.79 39.0226C23.641 39.7554 24.9253 39.6607 25.6581 38.8096L27.0624 37.1801C27.3811 37.4556 27.7618 37.6133 28.1513 37.6591C28.7992 37.7353 29.4719 37.4994 29.9307 36.9671L31.3351 35.3362C31.6538 35.6117 32.0344 35.771 32.4238 35.8167C33.0718 35.8928 33.7445 35.6554 34.2016 35.1245L35.6076 33.4936C36.4587 34.2264 37.7415 34.1315 38.4741 33.2819L38.8473 32.8496C39.4178 32.1875 39.3438 31.1888 38.6816 30.6183Z" fill="#F9C295"/>
<path d="M38.6816 30.6183L37.2488 29.3829C37.7145 30.0004 37.7049 30.8788 37.1794 31.4888L36.7832 31.9477C36.0055 32.8495 34.6438 32.9503 33.7403 32.1724L32.2477 33.9036C31.7624 34.4672 31.0483 34.7192 30.3604 34.6384C29.947 34.5899 29.543 34.4208 29.2047 34.1283L27.7137 35.8598C27.2267 36.4247 26.5128 36.6751 25.8249 36.5943C25.4115 36.5458 25.0073 36.3783 24.669 36.0858L23.1782 37.8157C22.8974 38.142 22.5396 38.3618 22.1554 38.4751L22.79 39.0227C23.6411 39.7555 24.9254 39.6607 25.6582 38.8097L27.0625 37.1802C27.3811 37.4557 27.7619 37.6134 28.1513 37.6592C28.7993 37.7353 29.4719 37.4994 29.9307 36.9672L31.3352 35.3362C31.6539 35.6117 32.0344 35.771 32.4239 35.8167C33.0718 35.8929 33.7446 35.6555 34.2017 35.1245L35.6076 33.4937C36.4587 34.2265 37.7415 34.1316 38.4741 33.2819L38.8474 32.8496C39.4178 32.1874 39.3438 31.1888 38.6816 30.6183Z" fill="#E59F6A"/>
<path d="M36.0838 32.9506L33.5065 30.7283C33.2004 30.4643 32.7378 30.4985 32.4735 30.8048C32.2093 31.1111 32.2436 31.5736 32.55 31.8378L35.1227 34.0562L35.6077 33.4937C35.8012 33.6604 36.0177 33.7819 36.2444 33.8639C36.4117 33.5661 36.3524 33.1821 36.0838 32.9506Z" fill="#E59F6A"/>
<path d="M31.9631 35.7056C32.1395 35.4063 32.083 35.0148 31.8105 34.7798L29.4953 32.7836C29.189 32.5196 28.7266 32.5538 28.4623 32.8601C28.1981 33.1665 28.2324 33.6289 28.5388 33.8931L30.854 35.8893C30.855 35.8901 30.8559 35.8908 30.8569 35.8915L31.3352 35.3361C31.526 35.501 31.7392 35.6234 31.9631 35.7056Z" fill="#E59F6A"/>
<path d="M12.3423 29.7982L11.7844 30.5349C11.1768 31.3372 11.3347 32.48 12.1369 33.0876C12.9391 33.6952 14.082 33.5374 14.6896 32.7351L15.2475 31.9984C15.855 31.1962 15.6972 30.0533 14.895 29.4457C14.0927 28.8382 12.9498 28.996 12.3423 29.7982Z" fill="#F29F5C"/>
<path d="M15.7403 31.3476L14.6896 32.735C14.0821 33.5373 14.2399 34.6802 15.0422 35.2878C15.8444 35.8953 16.9873 35.7375 17.5949 34.9352L18.6456 33.5478C19.2531 32.7456 19.0953 31.6027 18.293 30.9951C17.4907 30.3876 16.3478 30.5454 15.7403 31.3476Z" fill="#F29F5C"/>
<path d="M19.0267 33.0445L17.5948 34.9353C16.9873 35.7375 17.1451 36.8804 17.9473 37.488C18.7496 38.0955 19.8924 37.9377 20.5 37.1355L21.932 35.2447C22.5395 34.4424 22.3817 33.2995 21.5794 32.6919C20.7772 32.0843 19.6343 32.2422 19.0267 33.0445Z" fill="#F29F5C"/>
<path d="M22.0151 35.1349L20.5 37.1354C19.8925 37.9376 20.0503 39.0805 20.8526 39.6881C21.6548 40.2956 22.7977 40.1378 23.4053 39.3356L24.9203 37.3351C25.5278 36.5328 25.37 35.39 24.5678 34.7823C23.7654 34.1748 22.6226 34.3326 22.0151 35.1349Z" fill="#F29F5C"/>
<path d="M37.1962 14.3L32.5819 11.7032C32.0898 11.4263 31.5249 11.3058 30.9625 11.3577L23.6768 12.0316C22.7812 12.1144 21.9809 12.6254 21.529 13.4031L16.3939 22.2418C16.0147 22.8945 16.3124 23.7314 17.0185 23.9981L17.2286 24.0774C19.1109 24.7884 21.2367 24.1834 22.4625 22.588L24.43 20.0274C24.43 20.0274 29.1594 25.5033 34.3664 19.1085" fill="#F29F5C"/>
<path d="M49.9944 30.1897L47.581 10.5852C47.5573 10.3925 47.458 10.217 47.3049 10.0974C47.1518 9.97792 46.9575 9.92421 46.7646 9.94784L41.1213 10.6426C39.6556 10.823 38.61 12.1623 38.7905 13.6279L40.7284 29.37C40.8951 30.7252 42.0525 31.7212 43.3846 31.7212C43.4932 31.7212 43.6032 31.7145 43.7137 31.701L49.357 31.0062C49.7584 30.9567 50.0438 30.5912 49.9944 30.1897Z" fill="#5C9CEE"/>
<path d="M49.9944 30.1898L49.7295 28.0379C49.6094 28.2142 49.4176 28.3401 49.1892 28.3683L43.2736 29.0965C43.1577 29.1107 43.0424 29.1177 42.9285 29.1177C41.9324 29.1177 41.03 28.5862 40.5308 27.7661L40.7283 29.37C40.895 30.7252 42.0524 31.7212 43.3845 31.7212C43.4931 31.7212 43.6031 31.7145 43.7136 31.701L49.3569 31.0062C49.7584 30.9568 50.0438 30.5913 49.9944 30.1898Z" fill="#3580D3"/>
<path d="M8.87867 10.6425L3.23533 9.94775C3.04227 9.92402 2.84822 9.97783 2.6951 10.0974C2.54198 10.2169 2.44266 10.3924 2.41893 10.5852L0.0055601 30.1898C-0.0438538 30.5912 0.241594 30.9568 0.64296 31.0062L6.2863 31.7009C6.39684 31.7145 6.50671 31.7211 6.6154 31.7211C7.94742 31.7211 9.10484 30.725 9.27164 29.3699L11.2095 13.6278C11.39 12.1622 10.3444 10.8229 8.87867 10.6425Z" fill="#ED5575"/>
<path d="M0.00556161 30.1898L0.270502 28.0379C0.390619 28.2142 0.582415 28.3401 0.810734 28.3683L6.72643 29.0965C6.84225 29.1107 6.95758 29.1177 7.07145 29.1177C8.06754 29.1177 8.96998 28.5862 9.4692 27.7661L9.27174 29.37C9.10494 30.7252 7.94762 31.7212 6.6155 31.7212C6.5069 31.7212 6.39684 31.7145 6.2864 31.701L0.643059 31.0062C0.241498 30.9568 -0.0438523 30.5913 0.00556161 30.1898Z" fill="#CC3A60"/>
<path d="M45.3123 28.4666C46.0943 28.4666 46.7281 27.8328 46.7281 27.0508C46.7281 26.2689 46.0943 25.635 45.3123 25.635C44.5304 25.635 43.8965 26.2689 43.8965 27.0508C43.8965 27.8328 44.5304 28.4666 45.3123 28.4666Z" fill="#EBEEF2"/>
<path d="M4.60838 28.4666C5.39031 28.4666 6.02419 27.8328 6.02419 27.0508C6.02419 26.2689 5.39031 25.635 4.60838 25.635C3.82645 25.635 3.19257 26.2689 3.19257 27.0508C3.19257 27.8328 3.82645 28.4666 4.60838 28.4666Z" fill="#EBEEF2"/>
</g>
<defs>
<clipPath id="clip0_70_79">
<rect width="50" height="50" fill="white"/>
</clipPath>
</defs>
</svg>
