<svg width="50" height="50" viewBox="0 0 50 50" fill="none" xmlns="http://www.w3.org/2000/svg">
<g clip-path="url(#clip0_70_118)">
<path d="M21.5527 23.993L23.9907 21.5551L30.0977 27.6621L27.6598 30.1001L21.5527 23.993Z" fill="#603E26"/>
<path d="M5.17239 41.3794H17.2414C18.6697 41.3794 19.8276 42.5373 19.8276 43.9656V47.4139H2.58618V43.9656C2.58618 42.5373 3.74407 41.3794 5.17239 41.3794Z" fill="#A56A43"/>
<path d="M28.2672 20.9484L20.9483 28.2674C20.6249 28.5911 20.186 28.773 19.7284 28.773C19.2708 28.773 18.832 28.5911 18.5086 28.2674L17.2931 27.0432L20.7414 20.5777L27.0431 17.2932L28.2672 18.5087C28.591 18.8321 28.7729 19.271 28.7729 19.7286C28.7729 20.1862 28.591 20.625 28.2672 20.9484V20.9484Z" fill="#805333"/>
<path d="M13.0258 32.5344L11.8017 33.7499C11.4655 34.0842 10.9224 34.0842 10.5862 33.7499L0.862054 23.9999C0.698854 23.838 0.607056 23.6177 0.607056 23.3878C0.607056 23.158 0.698854 22.9376 0.862054 22.7758L2.05171 21.5516C3.06143 20.5432 4.69717 20.5432 5.70688 21.5516L10.2327 24.3447L13.0258 28.862C13.5155 29.3476 13.7908 30.0086 13.7908 30.6982C13.7908 31.3878 13.5155 32.0488 13.0258 32.5344V32.5344Z" fill="#805333"/>
<path d="M32.5345 13.0258L33.75 11.8017C34.0842 11.4655 34.0842 10.9224 33.75 10.5862L24 0.862054C23.8381 0.698854 23.6178 0.607056 23.3879 0.607056C23.158 0.607056 22.9377 0.698854 22.7758 0.862054L21.5517 2.05171C20.5432 3.06143 20.5432 4.69717 21.5517 5.70688L23.8362 10.1552L28.862 13.0258C29.3476 13.5155 30.0087 13.7908 30.6982 13.7908C31.3878 13.7908 32.0488 13.5155 32.5345 13.0258V13.0258Z" fill="#805333"/>
<path d="M1.72414 45.6897H20.6897C21.6419 45.6897 22.4138 46.4616 22.4138 47.4138V49.138C22.4138 49.6141 22.0278 50 21.5517 50H0.862069C0.385961 50 0 49.6141 0 49.138V47.4138C0 46.4616 0.771923 45.6897 1.72414 45.6897Z" fill="#805333"/>
<path d="M19.8276 37.9311C19.3515 37.9311 18.9655 37.5451 18.9655 37.069V33.6207C18.9655 33.1446 19.3515 32.7587 19.8276 32.7587C20.3037 32.7587 20.6897 33.1446 20.6897 33.6207V37.069C20.6897 37.5451 20.3037 37.9311 19.8276 37.9311Z" fill="#F3D55B"/>
<path d="M26.7242 41.3792H23.2759C22.7998 41.3792 22.4138 40.9932 22.4138 40.5171C22.4138 40.041 22.7998 39.655 23.2759 39.655H26.7242C27.2003 39.655 27.5862 40.041 27.5862 40.5171C27.5862 40.9932 27.2003 41.3792 26.7242 41.3792Z" fill="#F3D55B"/>
<path d="M22.4138 38.7931C22.1846 38.7944 21.9644 38.7045 21.8017 38.5431C21.6385 38.3812 21.5467 38.1609 21.5467 37.931C21.5467 37.7012 21.6385 37.4808 21.8017 37.319L24.3879 34.7328C24.7259 34.3947 25.274 34.3947 25.612 34.7328C25.9501 35.0708 25.9501 35.6189 25.612 35.9569L23.0258 38.5431C22.8631 38.7045 22.6429 38.7944 22.4138 38.7931Z" fill="#F3D55B"/>
<path d="M28.8708 15.4655L15.4656 28.8707C15.1422 29.1944 14.7033 29.3764 14.2457 29.3764C13.7881 29.3764 13.3493 29.1944 13.0259 28.8707L7.54315 23.3879L12.5604 15.3448L15.0001 12.931L23.388 7.56897L28.8708 13.0517C29.5279 13.7221 29.5279 14.7951 28.8708 15.4655V15.4655Z" fill="#A56A43"/>
<path d="M23.3879 7.54305L12.4138 18.5086L9.97414 20.9482L7.54311 23.3879L5.7069 21.5517C5.38315 21.2283 5.20123 20.7894 5.20123 20.3318C5.20123 19.8742 5.38315 19.4354 5.7069 19.112L19.1207 5.70684C19.4441 5.38308 19.8829 5.20117 20.3405 5.20117C20.7981 5.20117 21.237 5.38308 21.5603 5.70684L23.3879 7.54305Z" fill="#CB8252"/>
<path d="M48.9915 44.112L47.1639 42.2844L44.7242 39.8448L33.138 28.2672L30.7069 25.862C30.3836 25.5382 29.9447 25.3563 29.4871 25.3563C29.0295 25.3563 28.5907 25.5382 28.2673 25.862L25.8621 28.2672C25.5384 28.5906 25.3564 29.0294 25.3564 29.487C25.3564 29.9446 25.5384 30.3834 25.8621 30.7068L28.3018 33.1465L39.8449 44.7241L42.2845 47.1637L44.1121 48.9913C44.9837 49.8629 46.2541 50.2033 47.4448 49.8843C48.6354 49.5653 49.5654 48.6353 49.8844 47.4446C50.2035 46.254 49.8631 44.9836 48.9915 44.112V44.112Z" fill="#805333"/>
<path d="M33.138 28.2672L28.2673 33.1379L25.8621 30.7068C25.5384 30.3834 25.3564 29.9446 25.3564 29.487C25.3564 29.0294 25.5384 28.5906 25.8621 28.2672L28.2673 25.862C28.5907 25.5382 29.0295 25.3563 29.4871 25.3563C29.9447 25.3563 30.3836 25.5382 30.7069 25.862L33.138 28.2672Z" fill="#F3D55B"/>
<path d="M39.8292 44.7194L44.7051 39.8435L47.143 42.2814L42.2672 47.1573L39.8292 44.7194Z" fill="#BDC3C7"/>
<path d="M48.9914 48.9913C48.3446 49.6388 47.4669 50.0027 46.5517 50.0027C45.6365 50.0027 44.7589 49.6388 44.1121 48.9913L42.2845 47.1637L47.1638 42.2844L48.9914 44.112C49.6389 44.7588 50.0027 45.6365 50.0027 46.5517C50.0027 47.4669 49.6389 48.3445 48.9914 48.9913V48.9913Z" fill="#603E26"/>
</g>
<defs>
<clipPath id="clip0_70_118">
<rect width="50" height="50" fill="white"/>
</clipPath>
</defs>
</svg>
