<svg width="100" height="100" viewBox="0 0 100 100" fill="none" xmlns="http://www.w3.org/2000/svg">
<path d="M50 48.9066C61.1183 48.9066 70.1323 37.9586 70.1323 24.4534C70.1323 10.948 67.1728 0 50 0C32.8271 0 29.8671 10.948 29.8671 24.4534C29.8671 37.9586 38.8811 48.9066 50 48.9066Z" fill="white"/>
<path d="M11.974 86.2437C11.9706 85.4203 11.9671 86.0117 11.974 86.2437V86.2437Z" fill="white"/>
<path d="M88.0243 86.8869C88.0351 86.6615 88.028 85.3229 88.0243 86.8869V86.8869Z" fill="white"/>
<path d="M87.9814 85.2564C87.6086 61.7301 84.536 55.0264 61.0237 50.783C61.0237 50.783 57.714 55.0004 49.9997 55.0004C42.2854 55.0004 38.9751 50.783 38.9751 50.783C15.7194 54.9801 12.46 61.5844 12.0314 84.4921C11.9963 86.3627 11.98 86.461 11.9737 86.2438C11.9751 86.6507 11.9768 87.4033 11.9768 88.7155C11.9768 88.7155 17.5745 100 49.9997 100C82.4243 100 88.0226 88.7155 88.0226 88.7155C88.0226 87.8724 88.0231 87.2861 88.024 86.8873C88.0177 87.0215 88.0051 86.7613 87.9814 85.2564Z" fill="white"/>
</svg>
