<svg width="50" height="50" viewBox="0 0 50 50" fill="none" xmlns="http://www.w3.org/2000/svg">
<path d="M35.642 34.498L36.8258 34.7758L40.669 45.8174C40.7914 46.169 40.5065 46.5287 40.136 46.4898L34.749 45.9258C34.5985 45.91 34.4489 45.9621 34.3408 46.0678L30.4683 49.8549C30.2021 50.1152 29.7554 50.0102 29.633 49.6586L25.7646 38.5448L26.3243 37.7246L35.642 34.498Z" fill="#FF4755"/>
<path d="M25.7645 38.5448L24.9829 36.2992L36.0464 32.5369L36.8257 34.7758C33.6842 37.0175 29.8802 38.3898 25.7645 38.5448Z" fill="#FC2B3A"/>
<path d="M14.3409 34.498L13.1571 34.7758L9.31397 45.8174C9.19151 46.169 9.47647 46.5287 9.84688 46.4898L15.2339 45.9258C15.3844 45.91 15.534 45.9621 15.6421 46.0678L19.5146 49.8549C19.7809 50.1152 20.2275 50.0102 20.3499 49.6586L24.2182 38.5448L23.6585 37.7246L14.3409 34.498Z" fill="#FF4755"/>
<path d="M24.2184 38.5448L25 36.2992L13.9365 32.5369L13.1572 34.7758C16.2987 37.0175 20.1027 38.3898 24.2184 38.5448V38.5448Z" fill="#FC2B3A"/>
<path d="M24.9999 35.0202C6.87299 35.0202 6.85795 17.5379 6.87299 17.2349C7.34945 7.63613 15.283 0 24.9999 0C34.7169 0 42.6504 7.63613 43.1269 17.2349C43.1419 17.5379 43.1496 35.0202 24.9999 35.0202Z" fill="#FFCB5B"/>
<path d="M25 34.4697C15.283 34.4697 7.34976 26.8335 6.87319 17.2349C6.85815 17.5379 6.85034 17.8429 6.85034 18.1496C6.85034 28.1734 14.9762 36.2992 25 36.2992C35.0237 36.2992 43.1496 28.1734 43.1496 18.1496C43.1496 17.8429 43.1417 17.5379 43.1267 17.2349C42.6501 26.8335 34.7169 34.4697 25 34.4697V34.4697Z" fill="#F7B737"/>
<path d="M24.9999 31.2528C10.7306 31.2528 10.7115 17.5373 10.7306 17.2348C11.2023 9.76445 17.4106 3.85156 24.9999 3.85156C32.5891 3.85156 38.7974 9.76445 39.2691 17.2348C39.2883 17.5373 39.2979 31.2528 24.9999 31.2528V31.2528Z" fill="#FF9838"/>
<path d="M25 30.6181C17.4107 30.6181 11.2037 24.705 10.7319 17.2349C10.7127 17.5374 10.7019 17.8423 10.7019 18.1496C10.7019 26.0462 17.1034 32.4477 25 32.4477C32.8965 32.4477 39.298 26.0462 39.298 18.1496C39.298 17.8422 39.2872 17.5374 39.268 17.2349C38.7962 24.705 32.5891 30.6181 25 30.6181Z" fill="#FF8709"/>
<path d="M26.3088 11.1848L27.6423 13.8867C27.8549 14.3175 28.2659 14.6161 28.7413 14.6851L31.7231 15.1184C32.9203 15.2924 33.3983 16.7637 32.532 17.6082L30.3744 19.7113C30.0304 20.0467 29.8734 20.5298 29.9546 21.0033L30.464 23.973C30.5123 24.2547 30.3867 24.755 30.3867 24.755H28.3461L24.9999 22.8736L21.6537 24.7549L19.6299 24.7956C19.6299 24.7956 19.4847 24.2711 19.5358 23.9729L20.0452 21.0032C20.1265 20.5297 19.9694 20.0466 19.6254 19.7112L17.4678 17.6081C16.6015 16.7637 17.0795 15.2924 18.2768 15.1183L21.2585 14.685C21.7339 14.616 22.1449 14.3174 22.3575 13.8866L23.691 11.1847C24.2264 10.0999 25.7734 10.0999 26.3088 11.1848V11.1848Z" fill="#FFF5F5"/>
<path d="M24.7634 22.0476L19.6139 24.7549C19.9134 25.5127 20.8359 25.942 21.6537 25.5121L24.3207 24.1099C24.7459 23.8864 25.2539 23.8864 25.6792 24.1099L28.3462 25.5121C29.1641 25.942 30.0866 25.5127 30.386 24.7549L25.2365 22.0476C25.0883 21.9698 24.9114 21.9698 24.7634 22.0476V22.0476Z" fill="#EFE2DD"/>
</svg>
