<svg width="20" height="20" viewBox="0 0 20 20" fill="none" xmlns="http://www.w3.org/2000/svg">
<path d="M0.624984 6.25001H19.375C19.72 6.25001 19.9999 5.96998 19.9999 5.62502C19.9999 5.28001 19.7199 5.00004 19.375 5.00004H0.624984C0.27997 5.00004 0 5.28006 0 5.62502C0 5.96998 0.280022 6.25001 0.624984 6.25001Z" fill="black"/>
<path d="M19.375 9.37503H0.624984C0.27997 9.37503 0 9.65505 0 10C0 10.345 0.280022 10.625 0.624984 10.625H19.375C19.72 10.625 19.9999 10.345 19.9999 10C19.9999 9.65505 19.72 9.37503 19.375 9.37503Z" fill="black"/>
<path d="M19.375 13.75H6.87498C6.52997 13.75 6.25 14.03 6.25 14.375C6.25 14.72 6.53002 15 6.87498 15H19.375C19.72 15 20 14.72 20 14.375C20 14.03 19.72 13.75 19.375 13.75Z" fill="black"/>
</svg>
