<svg width="100" height="100" viewBox="0 0 100 100" fill="none" xmlns="http://www.w3.org/2000/svg">
<path d="M41.2109 52.9297H58.7891V58.7891H41.2109V52.9297Z" fill="white"/>
<path d="M81.1287 58.789H64.6484V61.7187C64.6484 63.3377 63.3377 64.6484 61.7188 64.6484H38.2812C36.6623 64.6484 35.3516 63.3377 35.3516 61.7187V58.789H18.8713C15.0833 58.789 11.7332 56.3743 10.5339 52.7809L0 21.1738V85.1562C0 90.0024 3.94287 93.9453 8.78906 93.9453H91.2109C96.0571 93.9453 100 90.0024 100 85.1562V21.1761L89.4653 52.7809C88.2668 56.3743 84.9167 58.789 81.1287 58.789V58.789Z" fill="white"/>
<path d="M61.7187 6.05469H38.2812C33.435 6.05469 29.4922 9.99756 29.4922 14.8438V17.7734H5.04071L16.0904 50.927C16.4909 52.1255 17.6094 52.9297 18.8713 52.9297H35.3515V50C35.3515 48.381 36.6623 47.0703 38.2812 47.0703H61.7187C63.3377 47.0703 64.6484 48.381 64.6484 50V52.9297H81.1287C82.3906 52.9297 83.509 52.1255 83.9096 50.927L94.96 17.7734H70.5078V14.8438C70.5078 9.99756 66.5649 6.05469 61.7187 6.05469V6.05469ZM35.3515 17.7734V14.8438C35.3515 13.2271 36.6645 11.9141 38.2812 11.9141H61.7187C63.3354 11.9141 64.6484 13.2271 64.6484 14.8438V17.7734H35.3515Z" fill="white"/>
</svg>
