<svg width="350" height="350" viewBox="0 0 350 350" fill="none" xmlns="http://www.w3.org/2000/svg">
<g clip-path="url(#clip0_19_16)">
<path d="M269.106 240.791L240.039 269.855L314.919 344.735C315.045 344.861 315.175 344.97 315.302 345.087C315.528 345.291 315.754 345.496 315.983 345.718C324.348 352.976 336.957 352.301 344.499 344.193C352.041 336.082 351.8 323.457 343.955 315.64L269.106 240.791Z" fill="#E5EEF5"/>
<path d="M220.837 229.267L228.676 221.428L254.653 247.402L246.811 255.244L220.837 229.267Z" fill="#E5EEF5"/>
<path d="M183.306 101.113L169.645 137.735H196.967L183.306 101.113Z" fill="#E5EEF5"/>
<path d="M131.637 84.0461C131.637 86.3291 129.787 88.1791 127.504 88.1791C125.221 88.1791 123.371 86.3291 123.371 84.0461C123.371 81.763 125.221 79.9131 127.504 79.9131C129.787 79.9131 131.637 81.763 131.637 84.0461Z" fill="#E5EEF5"/>
<path d="M183.139 158.326C192.735 158.326 197.765 154.366 199.748 148.822H166.635C168.565 154.366 173.558 158.326 183.139 158.326Z" fill="#E5EEF5"/>
<path d="M58.0414 137.735H85.3638L71.7026 101.113L58.0414 137.735Z" fill="#E5EEF5"/>
<path d="M71.7026 158.326C81.2988 158.326 86.329 154.366 88.312 148.822H55.1985C57.1288 154.366 62.1218 158.326 71.7026 158.326Z" fill="#E5EEF5"/>
<path d="M128.692 27.9907C72.7482 27.9907 27.2357 73.4661 27.2357 129.361C27.2357 185.258 72.7482 230.73 128.692 230.73C184.636 230.73 230.149 185.258 230.149 129.361C230.149 73.4661 184.636 27.9907 128.692 27.9907V27.9907ZM183.139 169.756C166.325 169.756 154.585 159.009 154.585 143.622C154.585 141.552 155.739 139.656 157.577 138.703L175.074 91.8016H140.578C138.842 94.7127 136.191 96.9648 133.039 98.2053V175.749H144.358C147.421 175.749 149.902 178.23 149.902 181.292C149.902 184.352 147.421 186.836 144.358 186.836H110.651C107.588 186.836 105.107 184.352 105.107 181.292C105.107 178.23 107.588 175.749 110.651 175.749H121.951V98.2053C118.802 96.9648 116.154 94.7127 114.428 91.8016H79.9346L97.4318 138.703C99.2694 139.656 100.42 141.552 100.423 143.622C100.423 159.009 88.612 169.756 71.7026 169.756C54.8891 169.756 43.149 159.009 43.149 143.622C43.149 141.639 44.2101 139.804 45.9301 138.818L66.5085 83.6563C66.5302 83.6037 66.5549 83.5511 66.5797 83.4985C66.6168 83.4057 66.657 83.3129 66.7003 83.2201C66.7405 83.1273 66.7777 83.0592 66.8241 82.9819C66.8705 82.9015 66.9076 82.8241 66.9509 82.7499C66.9973 82.6787 67.0561 82.5859 67.1118 82.5055C67.1582 82.4374 67.2046 82.3694 67.2541 82.3013C67.3005 82.2363 67.3716 82.1497 67.4335 82.0724C67.4954 81.9981 67.5387 81.9455 67.5975 81.8837C67.6531 81.8218 67.7243 81.7476 67.7893 81.6826C67.8542 81.6145 67.9161 81.5558 67.9842 81.497C68.0491 81.4351 68.1141 81.3825 68.1821 81.3268C68.2502 81.2681 68.3275 81.2093 68.4018 81.1505C68.476 81.0948 68.5441 81.0515 68.6152 81.0051C68.6864 80.9556 68.7699 80.8999 68.8534 80.8535C68.937 80.804 69.0112 80.7607 69.0947 80.7174C69.1814 80.6741 69.2463 80.637 69.3237 80.5998C69.4196 80.5534 69.5186 80.5132 69.6176 80.473C69.6701 80.4514 69.7166 80.4266 69.7691 80.408L69.8279 80.3895C69.9331 80.3493 70.0445 80.3183 70.1527 80.2843C70.2208 80.2657 70.2889 80.2441 70.3538 80.2255C70.4621 80.2008 70.5704 80.1791 70.6787 80.1575C70.7498 80.1451 70.821 80.1296 70.8921 80.1173C70.9973 80.1018 71.1025 80.0956 71.2077 80.0832C71.2819 80.077 71.3561 80.0678 71.4304 80.0647C71.5325 80.0585 71.6377 80.0647 71.7397 80.0647H71.9749C72.0708 80.0678 72.1667 80.0801 72.2626 80.0894C72.3461 80.0987 72.4327 80.1049 72.5131 80.1173C72.5967 80.1296 72.6895 80.1513 72.7761 80.1667C72.8627 80.1822 72.9617 80.2008 73.0514 80.2255C73.1318 80.2441 73.2061 80.2688 73.2803 80.2905C73.3824 80.3214 73.4845 80.3524 73.5835 80.3864C73.6052 80.3957 73.6237 80.3988 73.6454 80.408C73.7011 80.4266 73.7506 80.4545 73.8032 80.4761C73.896 80.5163 73.9919 80.5565 74.0847 80.5968C74.1744 80.6401 74.2424 80.6772 74.3198 80.7205H112.665C114.211 73.7662 120.38 68.8165 127.507 68.8165C134.632 68.8165 140.8 73.7662 142.347 80.7205H180.695C180.772 80.6803 180.844 80.6401 180.921 80.6029C181.02 80.5565 181.119 80.5163 181.218 80.4761C181.267 80.4545 181.317 80.4297 181.366 80.408L181.425 80.3926C181.533 80.3524 181.642 80.3214 181.75 80.2874C181.818 80.2688 181.886 80.2472 181.954 80.2286C182.059 80.2039 182.168 80.1822 182.276 80.1606C182.347 80.1482 182.418 80.1296 182.489 80.1203C182.595 80.1049 182.7 80.0956 182.805 80.0863C182.882 80.0801 182.956 80.0708 183.031 80.0647C183.133 80.0616 183.235 80.0647 183.34 80.0647H183.572C183.668 80.0708 183.764 80.0832 183.863 80.0925C183.946 80.1018 184.03 80.108 184.11 80.1203C184.194 80.1296 184.287 80.1513 184.373 80.1698C184.46 80.1853 184.559 80.2039 184.652 80.2255C184.729 80.2472 184.803 80.2719 184.881 80.2936C184.98 80.3245 185.082 80.3555 185.181 80.3895C185.202 80.3957 185.224 80.4019 185.243 80.408C185.298 80.4297 185.348 80.4575 185.4 80.4792C185.496 80.5163 185.589 80.5565 185.682 80.5998C185.772 80.6432 185.84 80.6803 185.92 80.7236C185.997 80.7669 186.078 80.8071 186.155 80.8535C186.236 80.8999 186.316 80.9556 186.393 81.0082C186.474 81.0608 186.536 81.1041 186.604 81.1536C186.672 81.2062 186.752 81.2681 186.823 81.3299C186.898 81.3887 186.96 81.4413 187.024 81.5001C187.089 81.5589 187.154 81.6207 187.216 81.6826C187.281 81.7476 187.346 81.8156 187.411 81.8868C187.473 81.9548 187.519 82.0105 187.569 82.0755C187.618 82.1404 187.693 82.2271 187.751 82.3075C187.798 82.3725 187.844 82.4374 187.891 82.5055C187.943 82.5859 187.999 82.6694 188.048 82.753C188.098 82.8396 188.135 82.9046 188.175 82.9819C188.216 83.0592 188.262 83.1397 188.302 83.2263C188.339 83.3098 188.379 83.4119 188.423 83.5047C188.444 83.5604 188.469 83.6099 188.491 83.6625L209.066 138.824C210.789 139.811 211.85 141.642 211.85 143.628C211.86 159.009 200.048 169.756 183.139 169.756V169.756Z" fill="#E5EEF5"/>
<path d="M128.692 0.748779C57.7321 0.748779 -7.62939e-06 58.4437 -7.62939e-06 129.361C-7.62939e-06 200.277 57.7321 257.976 128.692 257.976C199.652 257.976 257.384 200.281 257.384 129.361C257.384 58.4437 199.652 0.748779 128.692 0.748779V0.748779ZM128.692 241.818C66.6353 241.818 16.1484 191.371 16.1484 129.361C16.1484 67.3532 66.6353 16.9034 128.692 16.9034C190.749 16.9034 241.236 67.3532 241.236 129.361C241.236 191.371 190.749 241.821 128.692 241.821V241.818Z" fill="#E5EEF5"/>
</g>
<defs>
<clipPath id="clip0_19_16">
<rect width="350" height="350" fill="white"/>
</clipPath>
</defs>
</svg>
