<svg width="265" height="67" viewBox="0 0 265 67" fill="none" xmlns="http://www.w3.org/2000/svg">
<path d="M16.9102 0.619141L17.1035 8.56445H16.3828C16.043 6.57227 15.2051 4.97266 13.8691 3.76562C12.5449 2.54688 11.1094 1.9375 9.5625 1.9375C8.36719 1.9375 7.41797 2.25977 6.71484 2.9043C6.02344 3.53711 5.67773 4.26953 5.67773 5.10156C5.67773 5.62891 5.80078 6.09766 6.04688 6.50781C6.38672 7.05859 6.93164 7.60352 7.68164 8.14258C8.23242 8.5293 9.50391 9.21484 11.4961 10.1992C14.2852 11.5703 16.166 12.8652 17.1387 14.084C18.0996 15.3027 18.5801 16.6973 18.5801 18.2676C18.5801 20.2598 17.8008 21.9766 16.2422 23.418C14.6953 24.8477 12.7266 25.5625 10.3359 25.5625C9.58594 25.5625 8.87695 25.4863 8.20898 25.334C7.54102 25.1816 6.70312 24.8945 5.69531 24.4727C5.13281 24.2383 4.66992 24.1211 4.30664 24.1211C4.00195 24.1211 3.67969 24.2383 3.33984 24.4727C3 24.707 2.72461 25.0645 2.51367 25.5449H1.86328V16.5449H2.51367C3.0293 19.0762 4.01953 21.0098 5.48438 22.3457C6.96094 23.6699 8.54883 24.332 10.248 24.332C11.5605 24.332 12.6035 23.9746 13.377 23.2598C14.1621 22.5449 14.5547 21.7129 14.5547 20.7637C14.5547 20.2012 14.4023 19.6562 14.0977 19.1289C13.8047 18.6016 13.3535 18.1035 12.7441 17.6348C12.1348 17.1543 11.0566 16.5332 9.50977 15.7715C7.3418 14.7051 5.7832 13.7969 4.83398 13.0469C3.88477 12.2969 3.15234 11.459 2.63672 10.5332C2.13281 9.60742 1.88086 8.58789 1.88086 7.47461C1.88086 5.57617 2.57812 3.95898 3.97266 2.62305C5.36719 1.28711 7.125 0.619141 9.24609 0.619141C10.0195 0.619141 10.7695 0.712891 11.4961 0.900391C12.0469 1.04102 12.7148 1.30469 13.5 1.69141C14.2969 2.06641 14.8535 2.25391 15.1699 2.25391C15.4746 2.25391 15.7148 2.16016 15.8906 1.97266C16.0664 1.78516 16.2305 1.33398 16.3828 0.619141H16.9102ZM30.1113 25H20.4434V24.3848C20.9121 24.3848 21.2988 24.3613 21.6035 24.3145C21.9199 24.2559 22.1719 24.1445 22.3594 23.9805C22.5469 23.8164 22.6816 23.582 22.7637 23.2773C22.8457 22.9727 22.8867 22.5742 22.8867 22.082V10.6738C22.8867 10.1465 22.8398 9.73047 22.7461 9.42578C22.6641 9.12109 22.5234 8.88672 22.3242 8.72266C22.125 8.55859 21.8672 8.45312 21.5508 8.40625C21.2461 8.35938 20.877 8.33594 20.4434 8.33594V7.7207H30.1113V8.33594C29.6543 8.33594 29.2676 8.35938 28.9512 8.40625C28.6465 8.45312 28.3945 8.55859 28.1953 8.72266C28.0078 8.88672 27.873 9.12109 27.791 9.42578C27.709 9.73047 27.668 10.1465 27.668 10.6738V22.082C27.668 22.5742 27.7031 22.9727 27.7734 23.2773C27.8438 23.5703 27.9727 23.7988 28.1602 23.9629C28.3477 24.127 28.5996 24.2383 28.916 24.2969C29.2324 24.3555 29.6309 24.3848 30.1113 24.3848V25ZM46.9688 7.7207H54.8086V8.33594C54.3281 8.33594 53.9297 8.36523 53.6133 8.42383C53.2969 8.48242 53.0449 8.58789 52.8574 8.74023C52.6699 8.89258 52.5352 9.10938 52.4531 9.39062C52.3711 9.66016 52.3301 10.0059 52.3301 10.4277V22.082C52.3301 22.5977 52.3711 23.0078 52.4531 23.3125C52.5352 23.6172 52.6641 23.8516 52.8398 24.0156C53.0273 24.168 53.2676 24.2676 53.5605 24.3145C53.8535 24.3613 54.2109 24.3848 54.6328 24.3848V25H44.9473V24.3848C45.4746 24.3848 45.9023 24.3555 46.2305 24.2969C46.5703 24.2266 46.834 24.1094 47.0215 23.9453C47.209 23.7695 47.3379 23.5352 47.4082 23.2422C47.4785 22.9375 47.5137 22.5508 47.5137 22.082V9.67188H47.4434L41.168 25H40.5527L34.5762 10.4277H34.4707V21.9062C34.4707 22.8086 34.6934 23.4473 35.1387 23.8223C35.584 24.1973 36.2637 24.3848 37.1777 24.3848V25H30.9199V24.3848C31.7285 24.3848 32.3262 24.1855 32.7129 23.7871C33.0996 23.3887 33.293 22.7383 33.293 21.8359V10.6738C33.293 10.2402 33.2578 9.87695 33.1875 9.58398C33.1289 9.29102 33.0059 9.05078 32.8184 8.86328C32.6309 8.67578 32.373 8.54102 32.0449 8.45898C31.7285 8.37695 31.3125 8.33594 30.7969 8.33594V7.7207H38.6191L42.7148 18.0566L46.9688 7.7207ZM71.6133 7.7207H79.4531V8.33594C78.9727 8.33594 78.5742 8.36523 78.2578 8.42383C77.9414 8.48242 77.6895 8.58789 77.502 8.74023C77.3145 8.89258 77.1797 9.10938 77.0977 9.39062C77.0156 9.66016 76.9746 10.0059 76.9746 10.4277V22.082C76.9746 22.5977 77.0156 23.0078 77.0977 23.3125C77.1797 23.6172 77.3086 23.8516 77.4844 24.0156C77.6719 24.168 77.9121 24.2676 78.2051 24.3145C78.498 24.3613 78.8555 24.3848 79.2773 24.3848V25H69.5918V24.3848C70.1191 24.3848 70.5469 24.3555 70.875 24.2969C71.2148 24.2266 71.4785 24.1094 71.666 23.9453C71.8535 23.7695 71.9824 23.5352 72.0527 23.2422C72.123 22.9375 72.1582 22.5508 72.1582 22.082V9.67188H72.0879L65.8125 25H65.1973L59.2207 10.4277H59.1152V21.9062C59.1152 22.8086 59.3379 23.4473 59.7832 23.8223C60.2285 24.1973 60.9082 24.3848 61.8223 24.3848V25H55.5645V24.3848C56.373 24.3848 56.9707 24.1855 57.3574 23.7871C57.7441 23.3887 57.9375 22.7383 57.9375 21.8359V10.6738C57.9375 10.2402 57.9023 9.87695 57.832 9.58398C57.7734 9.29102 57.6504 9.05078 57.4629 8.86328C57.2754 8.67578 57.0176 8.54102 56.6895 8.45898C56.373 8.37695 55.957 8.33594 55.4414 8.33594V7.7207H63.2637L67.3594 18.0566L71.6133 7.7207ZM100.828 16.4043C100.828 17.623 100.6 18.7832 100.143 19.8848C99.6973 20.9863 99.0469 21.9531 98.1914 22.7852C97.3477 23.6055 96.3105 24.2617 95.0801 24.7539C93.8613 25.2344 92.4785 25.4746 90.9316 25.4746C89.4316 25.4746 88.0723 25.252 86.8535 24.8066C85.6465 24.3613 84.6152 23.7402 83.7598 22.9434C82.9043 22.1348 82.2422 21.1797 81.7734 20.0781C81.3047 18.9648 81.0703 17.7402 81.0703 16.4043C81.0703 15.0801 81.3105 13.8613 81.791 12.748C82.2715 11.623 82.9453 10.6562 83.8125 9.84766C84.6914 9.03906 85.7285 8.41211 86.9238 7.9668C88.1309 7.50977 89.4551 7.28125 90.8965 7.28125C92.2324 7.28125 93.498 7.48633 94.6934 7.89648C95.9004 8.30664 96.9551 8.9043 97.8574 9.68945C98.7715 10.4629 99.4922 11.418 100.02 12.5547C100.559 13.6797 100.828 14.9629 100.828 16.4043ZM95.5371 16.5449C95.5371 15.1855 95.4199 14.002 95.1855 12.9941C94.9629 11.9746 94.6465 11.1309 94.2363 10.4629C93.8379 9.79492 93.3516 9.29688 92.7773 8.96875C92.2148 8.64062 91.5996 8.47656 90.9316 8.47656C90.3691 8.47656 89.8125 8.61133 89.2617 8.88086C88.7109 9.15039 88.2129 9.58984 87.7676 10.1992C87.334 10.8086 86.9766 11.6113 86.6953 12.6074C86.4258 13.6035 86.291 14.8281 86.291 16.2812C86.291 17.2305 86.3613 18.1797 86.502 19.1289C86.6543 20.0781 86.9062 20.9336 87.2578 21.6953C87.6211 22.457 88.0957 23.0781 88.6816 23.5586C89.2793 24.0391 90.0176 24.2793 90.8965 24.2793C91.623 24.2793 92.2734 24.0977 92.8477 23.7344C93.4219 23.3711 93.9082 22.8555 94.3066 22.1875C94.7051 21.5078 95.0098 20.6934 95.2207 19.7441C95.4316 18.7949 95.5371 17.7285 95.5371 16.5449ZM118.195 17.8281V10.7793C118.195 10.416 118.154 10.0879 118.072 9.79492C117.99 9.49023 117.85 9.23242 117.65 9.02148C117.451 8.79883 117.176 8.62891 116.824 8.51172C116.473 8.39453 116.027 8.33594 115.488 8.33594V7.7207H121.816V8.33594C121.02 8.33594 120.422 8.53516 120.023 8.93359C119.637 9.32031 119.443 9.93555 119.443 10.7793V25.4395H118.793L106.049 11.5352V21.8711C106.049 22.2812 106.09 22.6445 106.172 22.9609C106.254 23.2656 106.4 23.5234 106.611 23.7344C106.822 23.9453 107.109 24.1094 107.473 24.2266C107.836 24.332 108.299 24.3848 108.861 24.3848V25H102.463V24.3848C103.271 24.3848 103.869 24.1855 104.256 23.7871C104.643 23.3887 104.836 22.7734 104.836 21.9414V10.2695L104.221 9.67188C103.951 9.39062 103.705 9.16797 103.482 9.00391C103.271 8.82812 103.066 8.69336 102.867 8.59961C102.68 8.50586 102.492 8.44141 102.305 8.40625C102.129 8.37109 101.953 8.34766 101.777 8.33594V7.7207H108.721L118.195 17.8281ZM123.539 12.6953C123.539 11.9219 123.686 11.207 123.979 10.5508C124.283 9.88281 124.705 9.30859 125.244 8.82812C125.783 8.33594 126.422 7.95508 127.16 7.68555C127.91 7.41602 128.73 7.28125 129.621 7.28125C130.348 7.28125 130.986 7.3457 131.537 7.47461C132.088 7.60352 132.568 7.74414 132.979 7.89648C133.389 8.04883 133.74 8.18945 134.033 8.31836C134.326 8.44727 134.584 8.51172 134.807 8.51172C135.1 8.51172 135.328 8.38281 135.492 8.125C135.656 7.86719 135.738 7.58594 135.738 7.28125H136.424V13.293H135.738C135.527 12.625 135.24 11.9922 134.877 11.3945C134.514 10.7969 134.092 10.2812 133.611 9.84766C133.131 9.40234 132.586 9.05078 131.977 8.79297C131.379 8.53516 130.734 8.40625 130.043 8.40625C129.047 8.40625 128.297 8.62891 127.793 9.07422C127.301 9.51953 127.055 10.1113 127.055 10.8496C127.055 11.3535 127.207 11.7812 127.512 12.1328C127.816 12.4727 128.215 12.7715 128.707 13.0293C129.199 13.2754 129.756 13.5039 130.377 13.7148C130.998 13.9258 131.631 14.1543 132.275 14.4004C132.932 14.6348 133.564 14.9043 134.174 15.209C134.795 15.502 135.34 15.8711 135.809 16.3164C136.137 16.6211 136.395 16.9316 136.582 17.248C136.781 17.5527 136.934 17.8574 137.039 18.1621C137.145 18.4668 137.209 18.7715 137.232 19.0762C137.268 19.3691 137.285 19.6621 137.285 19.9551C137.285 20.7402 137.139 21.4727 136.846 22.1523C136.553 22.8203 136.119 23.4004 135.545 23.8926C134.971 24.3848 134.262 24.7715 133.418 25.0527C132.586 25.334 131.619 25.4746 130.518 25.4746C129.779 25.4746 129.141 25.416 128.602 25.2988C128.062 25.1816 127.594 25.0527 127.195 24.9121C126.797 24.7715 126.451 24.6426 126.158 24.5254C125.877 24.4082 125.613 24.3496 125.367 24.3496C125.074 24.3496 124.84 24.4434 124.664 24.6309C124.488 24.8184 124.318 25.0996 124.154 25.4746H123.504V18.8477H124.189C124.389 19.6797 124.676 20.4297 125.051 21.0977C125.438 21.7656 125.895 22.334 126.422 22.8027C126.961 23.2715 127.564 23.6348 128.232 23.8926C128.9 24.1504 129.627 24.2793 130.412 24.2793C131.525 24.2793 132.322 24.0625 132.803 23.6289C133.295 23.1836 133.541 22.6094 133.541 21.9062C133.541 21.3438 133.395 20.875 133.102 20.5C132.82 20.1133 132.445 19.7793 131.977 19.498C131.508 19.2168 130.975 18.9707 130.377 18.7598C129.779 18.5371 129.164 18.3086 128.531 18.0742C127.91 17.8398 127.301 17.582 126.703 17.3008C126.105 17.0195 125.572 16.6738 125.104 16.2637C124.635 15.8535 124.254 15.3613 123.961 14.7871C123.68 14.2129 123.539 13.5156 123.539 12.6953ZM162.369 0.619141V8.88086H161.684C161.168 6.72461 160.207 5.07227 158.801 3.92383C157.395 2.77539 155.801 2.20117 154.02 2.20117C152.531 2.20117 151.166 2.62891 149.924 3.48438C148.682 4.33984 147.773 5.45898 147.199 6.8418C146.461 8.61133 146.092 10.5801 146.092 12.748C146.092 14.8809 146.361 16.8262 146.9 18.584C147.439 20.3301 148.283 21.6543 149.432 22.5566C150.58 23.4473 152.068 23.8926 153.896 23.8926C155.396 23.8926 156.768 23.5645 158.01 22.9082C159.264 22.252 160.582 21.1211 161.965 19.5156V21.5723C160.629 22.9668 159.234 23.9805 157.781 24.6133C156.34 25.2344 154.652 25.5449 152.719 25.5449C150.176 25.5449 147.914 25.0352 145.934 24.0156C143.965 22.9961 142.441 21.5312 141.363 19.6211C140.297 17.7109 139.764 15.6777 139.764 13.5215C139.764 11.248 140.355 9.0918 141.539 7.05273C142.734 5.01367 144.34 3.43164 146.355 2.30664C148.383 1.18164 150.533 0.619141 152.807 0.619141C154.482 0.619141 156.252 0.982422 158.115 1.70898C159.193 2.13086 159.879 2.3418 160.172 2.3418C160.547 2.3418 160.869 2.20703 161.139 1.9375C161.42 1.65625 161.602 1.2168 161.684 0.619141H162.369ZM185.379 16.4043C185.379 17.623 185.15 18.7832 184.693 19.8848C184.248 20.9863 183.598 21.9531 182.742 22.7852C181.898 23.6055 180.861 24.2617 179.631 24.7539C178.412 25.2344 177.029 25.4746 175.482 25.4746C173.982 25.4746 172.623 25.252 171.404 24.8066C170.197 24.3613 169.166 23.7402 168.311 22.9434C167.455 22.1348 166.793 21.1797 166.324 20.0781C165.855 18.9648 165.621 17.7402 165.621 16.4043C165.621 15.0801 165.861 13.8613 166.342 12.748C166.822 11.623 167.496 10.6562 168.363 9.84766C169.242 9.03906 170.279 8.41211 171.475 7.9668C172.682 7.50977 174.006 7.28125 175.447 7.28125C176.783 7.28125 178.049 7.48633 179.244 7.89648C180.451 8.30664 181.506 8.9043 182.408 9.68945C183.322 10.4629 184.043 11.418 184.57 12.5547C185.109 13.6797 185.379 14.9629 185.379 16.4043ZM180.088 16.5449C180.088 15.1855 179.971 14.002 179.736 12.9941C179.514 11.9746 179.197 11.1309 178.787 10.4629C178.389 9.79492 177.902 9.29688 177.328 8.96875C176.766 8.64062 176.15 8.47656 175.482 8.47656C174.92 8.47656 174.363 8.61133 173.812 8.88086C173.262 9.15039 172.764 9.58984 172.318 10.1992C171.885 10.8086 171.527 11.6113 171.246 12.6074C170.977 13.6035 170.842 14.8281 170.842 16.2812C170.842 17.2305 170.912 18.1797 171.053 19.1289C171.205 20.0781 171.457 20.9336 171.809 21.6953C172.172 22.457 172.646 23.0781 173.232 23.5586C173.83 24.0391 174.568 24.2793 175.447 24.2793C176.174 24.2793 176.824 24.0977 177.398 23.7344C177.973 23.3711 178.459 22.8555 178.857 22.1875C179.256 21.5078 179.561 20.6934 179.771 19.7441C179.982 18.7949 180.088 17.7285 180.088 16.5449ZM207.633 16.4043C207.633 17.623 207.404 18.7832 206.947 19.8848C206.502 20.9863 205.852 21.9531 204.996 22.7852C204.152 23.6055 203.115 24.2617 201.885 24.7539C200.666 25.2344 199.283 25.4746 197.736 25.4746C196.236 25.4746 194.877 25.252 193.658 24.8066C192.451 24.3613 191.42 23.7402 190.564 22.9434C189.709 22.1348 189.047 21.1797 188.578 20.0781C188.109 18.9648 187.875 17.7402 187.875 16.4043C187.875 15.0801 188.115 13.8613 188.596 12.748C189.076 11.623 189.75 10.6562 190.617 9.84766C191.496 9.03906 192.533 8.41211 193.729 7.9668C194.936 7.50977 196.26 7.28125 197.701 7.28125C199.037 7.28125 200.303 7.48633 201.498 7.89648C202.705 8.30664 203.76 8.9043 204.662 9.68945C205.576 10.4629 206.297 11.418 206.824 12.5547C207.363 13.6797 207.633 14.9629 207.633 16.4043ZM202.342 16.5449C202.342 15.1855 202.225 14.002 201.99 12.9941C201.768 11.9746 201.451 11.1309 201.041 10.4629C200.643 9.79492 200.156 9.29688 199.582 8.96875C199.02 8.64062 198.404 8.47656 197.736 8.47656C197.174 8.47656 196.617 8.61133 196.066 8.88086C195.516 9.15039 195.018 9.58984 194.572 10.1992C194.139 10.8086 193.781 11.6113 193.5 12.6074C193.23 13.6035 193.096 14.8281 193.096 16.2812C193.096 17.2305 193.166 18.1797 193.307 19.1289C193.459 20.0781 193.711 20.9336 194.062 21.6953C194.426 22.457 194.9 23.0781 195.486 23.5586C196.084 24.0391 196.822 24.2793 197.701 24.2793C198.428 24.2793 199.078 24.0977 199.652 23.7344C200.227 23.3711 200.713 22.8555 201.111 22.1875C201.51 21.5078 201.814 20.6934 202.025 19.7441C202.236 18.7949 202.342 17.7285 202.342 16.5449ZM216.492 22.0469C216.492 22.5039 216.527 22.8848 216.598 23.1895C216.68 23.4824 216.814 23.7168 217.002 23.8926C217.201 24.0684 217.465 24.1914 217.793 24.2617C218.121 24.332 218.531 24.373 219.023 24.3848V25H209.303V24.3848C209.76 24.3848 210.141 24.3555 210.445 24.2969C210.762 24.2266 211.008 24.1035 211.184 23.9277C211.371 23.752 211.506 23.5117 211.588 23.207C211.67 22.9023 211.711 22.5156 211.711 22.0469V10.4277C211.711 9.63086 211.518 9.08594 211.131 8.79297C210.756 8.48828 210.117 8.33594 209.215 8.33594V7.7207H218.9C219.814 7.7207 220.693 7.80273 221.537 7.9668C222.393 8.11914 223.148 8.38281 223.805 8.75781C224.461 9.12109 224.982 9.60156 225.369 10.1992C225.768 10.7969 225.967 11.5293 225.967 12.3965C225.967 13.1113 225.82 13.7793 225.527 14.4004C225.246 15.0098 224.801 15.543 224.191 16C223.582 16.4453 222.809 16.7969 221.871 17.0547C220.945 17.3125 219.838 17.4414 218.549 17.4414H216.492V22.0469ZM216.492 16.1406H217.389C218.443 16.1406 219.275 15.8359 219.885 15.2266C220.506 14.6055 220.816 13.6855 220.816 12.4668C220.816 11.9277 220.758 11.4473 220.641 11.0254C220.523 10.5918 220.324 10.2285 220.043 9.93555C219.762 9.64258 219.387 9.41992 218.918 9.26758C218.449 9.10352 217.869 9.02148 217.178 9.02148H216.492V16.1406ZM234.422 15.4551H235.037C235.518 15.4551 235.957 15.4082 236.355 15.3145C236.754 15.2207 237.1 15.0449 237.393 14.7871C237.697 14.5293 237.938 14.1836 238.113 13.75C238.301 13.3047 238.418 12.7363 238.465 12.0449H239.133V19.9551H238.465C238.336 18.8066 237.99 17.9805 237.428 17.4766C236.865 16.9727 236.139 16.7207 235.248 16.7207H234.422V21.7656C234.422 22.1641 234.445 22.4922 234.492 22.75C234.539 22.9961 234.627 23.1895 234.756 23.3301C234.885 23.4707 235.061 23.5703 235.283 23.6289C235.506 23.6758 235.793 23.6992 236.145 23.6992H237.129C237.844 23.6992 238.494 23.6172 239.08 23.4531C239.666 23.2891 240.193 23.0371 240.662 22.6973C241.143 22.3574 241.564 21.9238 241.928 21.3965C242.303 20.8574 242.637 20.2246 242.93 19.498H243.562L242.771 25H227.039V24.3848C227.613 24.3848 228.07 24.3379 228.41 24.2441C228.762 24.1504 229.025 24.0098 229.201 23.8223C229.389 23.623 229.506 23.3828 229.553 23.1016C229.611 22.8086 229.641 22.4688 229.641 22.082V10.5332C229.641 10.1348 229.605 9.80078 229.535 9.53125C229.465 9.25 229.33 9.02148 229.131 8.8457C228.943 8.66992 228.68 8.54102 228.34 8.45898C228 8.37695 227.566 8.33594 227.039 8.33594V7.7207H242.314V12.6602H241.699C241.57 12.0977 241.383 11.5879 241.137 11.1309C240.902 10.6738 240.598 10.2871 240.223 9.9707C239.848 9.64258 239.391 9.39062 238.852 9.21484C238.324 9.03906 237.703 8.95117 236.988 8.95117H234.422V15.4551ZM251.367 22.0469C251.367 22.5508 251.408 22.9551 251.49 23.2598C251.572 23.5527 251.707 23.7812 251.895 23.9453C252.094 24.0977 252.352 24.2031 252.668 24.2617C252.996 24.3203 253.406 24.3613 253.898 24.3848V25H244.178V24.3848C244.646 24.3848 245.033 24.3555 245.338 24.2969C245.643 24.2266 245.889 24.1094 246.076 23.9453C246.264 23.7695 246.393 23.5352 246.463 23.2422C246.545 22.9375 246.586 22.5508 246.586 22.082V10.3926C246.586 10.0059 246.551 9.68359 246.48 9.42578C246.422 9.16797 246.299 8.95703 246.111 8.79297C245.924 8.62891 245.666 8.51172 245.338 8.44141C245.021 8.37109 244.605 8.33594 244.09 8.33594V7.7207H253.775C255.076 7.7207 256.195 7.83203 257.133 8.05469C258.07 8.27734 258.844 8.59375 259.453 9.00391C260.074 9.41406 260.531 9.91211 260.824 10.498C261.117 11.0723 261.264 11.7168 261.264 12.4316C261.264 13.4863 260.918 14.3535 260.227 15.0332C259.547 15.7129 258.586 16.252 257.344 16.6504L261.387 22.416C262.312 23.6934 263.232 24.3496 264.146 24.3848V25H257.344L252.457 17.4766H251.367V22.0469ZM251.367 16.1758H252.264C253.014 16.1758 253.641 16.0703 254.145 15.8594C254.66 15.6484 255.07 15.3672 255.375 15.0156C255.691 14.6641 255.914 14.2656 256.043 13.8203C256.172 13.3633 256.236 12.9004 256.236 12.4316C256.236 11.3418 255.914 10.5039 255.27 9.91797C254.637 9.32031 253.623 9.02148 252.229 9.02148H251.367V16.1758ZM9.7207 55.207V61.8164C9.7207 63.1055 9.79688 63.9199 9.94922 64.2598C10.1133 64.5879 10.3945 64.8516 10.793 65.0508C11.2031 65.25 11.9473 65.3496 13.0254 65.3496V66H0.914062V65.3496C2.01562 65.3496 2.75977 65.25 3.14648 65.0508C3.54492 64.8398 3.82031 64.5703 3.97266 64.2422C4.13672 63.9141 4.21875 63.1055 4.21875 61.8164V46.3477C4.21875 45.0586 4.13672 44.25 3.97266 43.9219C3.82031 43.582 3.54492 43.3125 3.14648 43.1133C2.74805 42.9141 2.00391 42.8145 0.914062 42.8145V42.1641H11.3027C14.7246 42.1641 17.1797 42.7734 18.668 43.9922C20.1562 45.2109 20.9004 46.7344 20.9004 48.5625C20.9004 50.1094 20.4199 51.4336 19.459 52.5352C18.498 53.6367 17.1738 54.3867 15.4863 54.7852C14.3496 55.0664 12.4277 55.207 9.7207 55.207ZM9.7207 43.5352V53.8359C10.1074 53.8594 10.4004 53.8711 10.5996 53.8711C12.0293 53.8711 13.1309 53.4492 13.9043 52.6055C14.6777 51.75 15.0645 50.4316 15.0645 48.6504C15.0645 46.8809 14.6777 45.5859 13.9043 44.7656C13.1309 43.9453 11.9766 43.5352 10.4414 43.5352H9.7207ZM27.123 61.1484L26.2969 63.0469C26.2031 63.2812 26.1328 63.5039 26.0859 63.7148C26.0508 63.9141 26.0332 64.0898 26.0332 64.2422C26.0332 64.6875 26.2383 64.9922 26.6484 65.1562C27.0586 65.3086 27.5977 65.3848 28.2656 65.3848V66H22.1836V65.3848C22.8516 65.3145 23.4199 65.0215 23.8887 64.5059C24.3574 63.9785 24.8086 63.2051 25.2422 62.1855L31.2539 48.2812H31.6934L38.0566 62.9766C38.4551 63.8438 38.8535 64.4648 39.252 64.8398C39.6504 65.2031 40.0957 65.3848 40.5879 65.3848V66H31.5879V65.3848C32.3613 65.3848 32.8945 65.3262 33.1875 65.209C33.4922 65.0918 33.6445 64.8984 33.6445 64.6289C33.6445 64.5234 33.627 64.4121 33.5918 64.2949C33.5684 64.1777 33.5098 64.0254 33.416 63.8379L32.2734 61.1484H27.123ZM29.8125 54.8027L27.6152 59.8828H31.7988L29.8125 54.8027ZM48.6562 63.0469C48.6562 63.5508 48.6973 63.9551 48.7793 64.2598C48.8613 64.5527 48.9961 64.7812 49.1836 64.9453C49.3828 65.0977 49.6406 65.2031 49.957 65.2617C50.2852 65.3203 50.6953 65.3613 51.1875 65.3848V66H41.4668V65.3848C41.9355 65.3848 42.3223 65.3555 42.627 65.2969C42.9316 65.2266 43.1777 65.1094 43.3652 64.9453C43.5527 64.7695 43.6816 64.5352 43.752 64.2422C43.834 63.9375 43.875 63.5508 43.875 63.082V51.3926C43.875 51.0059 43.8398 50.6836 43.7695 50.4258C43.7109 50.168 43.5879 49.957 43.4004 49.793C43.2129 49.6289 42.9551 49.5117 42.627 49.4414C42.3105 49.3711 41.8945 49.3359 41.3789 49.3359V48.7207H51.0645C52.3652 48.7207 53.4844 48.832 54.4219 49.0547C55.3594 49.2773 56.1328 49.5938 56.7422 50.0039C57.3633 50.4141 57.8203 50.9121 58.1133 51.498C58.4062 52.0723 58.5527 52.7168 58.5527 53.4316C58.5527 54.4863 58.207 55.3535 57.5156 56.0332C56.8359 56.7129 55.875 57.252 54.6328 57.6504L58.6758 63.416C59.6016 64.6934 60.5215 65.3496 61.4355 65.3848V66H54.6328L49.7461 58.4766H48.6562V63.0469ZM48.6562 57.1758H49.5527C50.3027 57.1758 50.9297 57.0703 51.4336 56.8594C51.9492 56.6484 52.3594 56.3672 52.6641 56.0156C52.9805 55.6641 53.2031 55.2656 53.332 54.8203C53.4609 54.3633 53.5254 53.9004 53.5254 53.4316C53.5254 52.3418 53.2031 51.5039 52.5586 50.918C51.9258 50.3203 50.9121 50.0215 49.5176 50.0215H48.6562V57.1758ZM76.8516 53.9414H76.166C76.1191 53.4492 76.0137 52.9688 75.8496 52.5C75.6855 52.0195 75.4512 51.5977 75.1465 51.2344C74.8418 50.8711 74.4609 50.5781 74.0039 50.3555C73.5586 50.1328 73.0312 50.0215 72.4219 50.0215H71.1738V62.8359C71.1738 63.3047 71.2031 63.7031 71.2617 64.0312C71.332 64.3477 71.4609 64.6113 71.6484 64.8223C71.8359 65.0215 72.0996 65.168 72.4395 65.2617C72.7793 65.3438 73.2188 65.3848 73.7578 65.3848V66H63.791V65.3848C64.248 65.3848 64.6406 65.3555 64.9688 65.2969C65.2969 65.2266 65.5605 65.1035 65.7598 64.9277C65.9707 64.7402 66.123 64.4883 66.2168 64.1719C66.3223 63.8438 66.375 63.4219 66.375 62.9062V50.0215H64.8984C64.3359 50.0215 63.8438 50.1445 63.4219 50.3906C63.0117 50.625 62.6602 50.9355 62.3672 51.3223C62.0742 51.6973 61.8457 52.1191 61.6816 52.5879C61.5293 53.0449 61.4297 53.4961 61.3828 53.9414H60.6973V48.7207H76.8516V53.9414ZM93.5156 58.8281V51.7793C93.5156 51.416 93.4746 51.0879 93.3926 50.7949C93.3105 50.4902 93.1699 50.2324 92.9707 50.0215C92.7715 49.7988 92.4961 49.6289 92.1445 49.5117C91.793 49.3945 91.3477 49.3359 90.8086 49.3359V48.7207H97.1367V49.3359C96.3398 49.3359 95.7422 49.5352 95.3438 49.9336C94.957 50.3203 94.7637 50.9355 94.7637 51.7793V66.4395H94.1133L81.3691 52.5352V62.8711C81.3691 63.2812 81.4102 63.6445 81.4922 63.9609C81.5742 64.2656 81.7207 64.5234 81.9316 64.7344C82.1426 64.9453 82.4297 65.1094 82.793 65.2266C83.1562 65.332 83.6191 65.3848 84.1816 65.3848V66H77.7832V65.3848C78.5918 65.3848 79.1895 65.1855 79.5762 64.7871C79.9629 64.3887 80.1562 63.7734 80.1562 62.9414V51.2695L79.541 50.6719C79.2715 50.3906 79.0254 50.168 78.8027 50.0039C78.5918 49.8281 78.3867 49.6934 78.1875 49.5996C78 49.5059 77.8125 49.4414 77.625 49.4062C77.4492 49.3711 77.2734 49.3477 77.0977 49.3359V48.7207H84.041L93.5156 58.8281ZM105.188 56.4551H105.803C106.283 56.4551 106.723 56.4082 107.121 56.3145C107.52 56.2207 107.865 56.0449 108.158 55.7871C108.463 55.5293 108.703 55.1836 108.879 54.75C109.066 54.3047 109.184 53.7363 109.23 53.0449H109.898V60.9551H109.23C109.102 59.8066 108.756 58.9805 108.193 58.4766C107.631 57.9727 106.904 57.7207 106.014 57.7207H105.188V62.7656C105.188 63.1641 105.211 63.4922 105.258 63.75C105.305 63.9961 105.393 64.1895 105.521 64.3301C105.65 64.4707 105.826 64.5703 106.049 64.6289C106.271 64.6758 106.559 64.6992 106.91 64.6992H107.895C108.609 64.6992 109.26 64.6172 109.846 64.4531C110.432 64.2891 110.959 64.0371 111.428 63.6973C111.908 63.3574 112.33 62.9238 112.693 62.3965C113.068 61.8574 113.402 61.2246 113.695 60.498H114.328L113.537 66H97.8047V65.3848C98.3789 65.3848 98.8359 65.3379 99.1758 65.2441C99.5273 65.1504 99.791 65.0098 99.9668 64.8223C100.154 64.623 100.271 64.3828 100.318 64.1016C100.377 63.8086 100.406 63.4688 100.406 63.082V51.5332C100.406 51.1348 100.371 50.8008 100.301 50.5312C100.23 50.25 100.096 50.0215 99.8965 49.8457C99.709 49.6699 99.4453 49.541 99.1055 49.459C98.7656 49.377 98.332 49.3359 97.8047 49.3359V48.7207H113.08V53.6602H112.465C112.336 53.0977 112.148 52.5879 111.902 52.1309C111.668 51.6738 111.363 51.2871 110.988 50.9707C110.613 50.6426 110.156 50.3906 109.617 50.2148C109.09 50.0391 108.469 49.9512 107.754 49.9512H105.188V56.4551ZM122.133 63.0469C122.133 63.5508 122.174 63.9551 122.256 64.2598C122.338 64.5527 122.473 64.7812 122.66 64.9453C122.859 65.0977 123.117 65.2031 123.434 65.2617C123.762 65.3203 124.172 65.3613 124.664 65.3848V66H114.943V65.3848C115.412 65.3848 115.799 65.3555 116.104 65.2969C116.408 65.2266 116.654 65.1094 116.842 64.9453C117.029 64.7695 117.158 64.5352 117.229 64.2422C117.311 63.9375 117.352 63.5508 117.352 63.082V51.3926C117.352 51.0059 117.316 50.6836 117.246 50.4258C117.188 50.168 117.064 49.957 116.877 49.793C116.689 49.6289 116.432 49.5117 116.104 49.4414C115.787 49.3711 115.371 49.3359 114.855 49.3359V48.7207H124.541C125.842 48.7207 126.961 48.832 127.898 49.0547C128.836 49.2773 129.609 49.5938 130.219 50.0039C130.84 50.4141 131.297 50.9121 131.59 51.498C131.883 52.0723 132.029 52.7168 132.029 53.4316C132.029 54.4863 131.684 55.3535 130.992 56.0332C130.312 56.7129 129.352 57.252 128.109 57.6504L132.152 63.416C133.078 64.6934 133.998 65.3496 134.912 65.3848V66H128.109L123.223 58.4766H122.133V63.0469ZM122.133 57.1758H123.029C123.779 57.1758 124.406 57.0703 124.91 56.8594C125.426 56.6484 125.836 56.3672 126.141 56.0156C126.457 55.6641 126.68 55.2656 126.809 54.8203C126.938 54.3633 127.002 53.9004 127.002 53.4316C127.002 52.3418 126.68 51.5039 126.035 50.918C125.402 50.3203 124.389 50.0215 122.994 50.0215H122.133V57.1758ZM136.23 53.6953C136.23 52.9219 136.377 52.207 136.67 51.5508C136.975 50.8828 137.396 50.3086 137.936 49.8281C138.475 49.3359 139.113 48.9551 139.852 48.6855C140.602 48.416 141.422 48.2812 142.312 48.2812C143.039 48.2812 143.678 48.3457 144.229 48.4746C144.779 48.6035 145.26 48.7441 145.67 48.8965C146.08 49.0488 146.432 49.1895 146.725 49.3184C147.018 49.4473 147.275 49.5117 147.498 49.5117C147.791 49.5117 148.02 49.3828 148.184 49.125C148.348 48.8672 148.43 48.5859 148.43 48.2812H149.115V54.293H148.43C148.219 53.625 147.932 52.9922 147.568 52.3945C147.205 51.7969 146.783 51.2812 146.303 50.8477C145.822 50.4023 145.277 50.0508 144.668 49.793C144.07 49.5352 143.426 49.4062 142.734 49.4062C141.738 49.4062 140.988 49.6289 140.484 50.0742C139.992 50.5195 139.746 51.1113 139.746 51.8496C139.746 52.3535 139.898 52.7812 140.203 53.1328C140.508 53.4727 140.906 53.7715 141.398 54.0293C141.891 54.2754 142.447 54.5039 143.068 54.7148C143.689 54.9258 144.322 55.1543 144.967 55.4004C145.623 55.6348 146.256 55.9043 146.865 56.209C147.486 56.502 148.031 56.8711 148.5 57.3164C148.828 57.6211 149.086 57.9316 149.273 58.248C149.473 58.5527 149.625 58.8574 149.73 59.1621C149.836 59.4668 149.9 59.7715 149.924 60.0762C149.959 60.3691 149.977 60.6621 149.977 60.9551C149.977 61.7402 149.83 62.4727 149.537 63.1523C149.244 63.8203 148.811 64.4004 148.236 64.8926C147.662 65.3848 146.953 65.7715 146.109 66.0527C145.277 66.334 144.311 66.4746 143.209 66.4746C142.471 66.4746 141.832 66.416 141.293 66.2988C140.754 66.1816 140.285 66.0527 139.887 65.9121C139.488 65.7715 139.143 65.6426 138.85 65.5254C138.568 65.4082 138.305 65.3496 138.059 65.3496C137.766 65.3496 137.531 65.4434 137.355 65.6309C137.18 65.8184 137.01 66.0996 136.846 66.4746H136.195V59.8477H136.881C137.08 60.6797 137.367 61.4297 137.742 62.0977C138.129 62.7656 138.586 63.334 139.113 63.8027C139.652 64.2715 140.256 64.6348 140.924 64.8926C141.592 65.1504 142.318 65.2793 143.104 65.2793C144.217 65.2793 145.014 65.0625 145.494 64.6289C145.986 64.1836 146.232 63.6094 146.232 62.9062C146.232 62.3438 146.086 61.875 145.793 61.5C145.512 61.1133 145.137 60.7793 144.668 60.498C144.199 60.2168 143.666 59.9707 143.068 59.7598C142.471 59.5371 141.855 59.3086 141.223 59.0742C140.602 58.8398 139.992 58.582 139.395 58.3008C138.797 58.0195 138.264 57.6738 137.795 57.2637C137.326 56.8535 136.945 56.3613 136.652 55.7871C136.371 55.2129 136.23 54.5156 136.23 53.6953Z" fill="#00569D"/>
</svg>
