<svg width="806" height="203" viewBox="0 0 806 203" fill="none" xmlns="http://www.w3.org/2000/svg">
<path d="M49.6699 0.50293L50.2607 24.7803H48.0586C47.0202 18.693 44.46 13.8053 40.3779 10.1172C36.3317 6.39323 31.9453 4.53125 27.2188 4.53125C23.5664 4.53125 20.666 5.51595 18.5176 7.48535C16.4049 9.41895 15.3486 11.6569 15.3486 14.1992C15.3486 15.8105 15.7246 17.2428 16.4766 18.4961C17.515 20.179 19.18 21.8441 21.4717 23.4912C23.1546 24.6729 27.0397 26.7676 33.127 29.7754C41.6491 33.9648 47.3962 37.9215 50.3682 41.6455C53.3044 45.3695 54.7725 49.6305 54.7725 54.4287C54.7725 60.516 52.3913 65.7617 47.6289 70.166C42.9023 74.5345 36.8867 76.7188 29.582 76.7188C27.2904 76.7188 25.124 76.486 23.083 76.0205C21.042 75.555 18.4818 74.6777 15.4023 73.3887C13.6836 72.6725 12.2692 72.3145 11.1592 72.3145C10.2282 72.3145 9.24349 72.6725 8.20508 73.3887C7.16667 74.1048 6.3252 75.1969 5.68066 76.665H3.69336V49.165H5.68066C7.25618 56.8994 10.2819 62.8076 14.7578 66.8896C19.2695 70.9359 24.1214 72.959 29.3135 72.959C33.3239 72.959 36.5107 71.8669 38.874 69.6826C41.2731 67.4984 42.4727 64.9561 42.4727 62.0557C42.4727 60.3369 42.0072 58.6719 41.0762 57.0605C40.181 55.4492 38.8024 53.9274 36.9404 52.4951C35.0785 51.027 31.7842 49.1292 27.0576 46.8018C20.4333 43.5433 15.6709 40.7682 12.7705 38.4766C9.87012 36.1849 7.63216 33.6247 6.05664 30.7959C4.51693 27.9671 3.74707 24.8519 3.74707 21.4502C3.74707 15.6494 5.8776 10.708 10.1387 6.62598C14.3997 2.54395 19.7708 0.50293 26.252 0.50293C28.6152 0.50293 30.9069 0.789388 33.127 1.3623C34.8099 1.79199 36.8509 2.59766 39.25 3.7793C41.6849 4.92513 43.3857 5.49805 44.3525 5.49805C45.2835 5.49805 46.0176 5.21159 46.5547 4.63867C47.0918 4.06576 47.5931 2.68717 48.0586 0.50293H49.6699ZM90.0068 75H60.4658V73.1201C61.8981 73.1201 63.0798 73.0485 64.0107 72.9053C64.9775 72.7262 65.7474 72.3861 66.3203 71.8848C66.8932 71.3835 67.305 70.6673 67.5557 69.7363C67.8063 68.8053 67.9316 67.5879 67.9316 66.084V31.2256C67.9316 29.6143 67.7884 28.3431 67.502 27.4121C67.2513 26.4811 66.8216 25.765 66.2129 25.2637C65.6042 24.7624 64.8164 24.4401 63.8496 24.2969C62.9186 24.1536 61.7907 24.082 60.4658 24.082V22.2021H90.0068V24.082C88.6104 24.082 87.4287 24.1536 86.4619 24.2969C85.5309 24.4401 84.7611 24.7624 84.1523 25.2637C83.5794 25.765 83.1676 26.4811 82.917 27.4121C82.6663 28.3431 82.541 29.6143 82.541 31.2256V66.084C82.541 67.5879 82.6484 68.8053 82.8633 69.7363C83.0781 70.6315 83.472 71.3298 84.0449 71.8311C84.6178 72.3324 85.3877 72.6725 86.3545 72.8516C87.3213 73.0306 88.5387 73.1201 90.0068 73.1201V75ZM141.516 22.2021H165.471V24.082C164.003 24.082 162.785 24.1715 161.818 24.3506C160.852 24.5296 160.082 24.8519 159.509 25.3174C158.936 25.7829 158.524 26.4453 158.273 27.3047C158.023 28.1283 157.897 29.1846 157.897 30.4736V66.084C157.897 67.6595 158.023 68.9128 158.273 69.8438C158.524 70.7747 158.918 71.4909 159.455 71.9922C160.028 72.4577 160.762 72.762 161.657 72.9053C162.552 73.0485 163.645 73.1201 164.934 73.1201V75H135.339V73.1201C136.95 73.1201 138.257 73.0306 139.26 72.8516C140.298 72.6367 141.104 72.2786 141.677 71.7773C142.25 71.2402 142.644 70.5241 142.858 69.6289C143.073 68.6979 143.181 67.5163 143.181 66.084V28.1641H142.966L123.791 75H121.911L103.649 30.4736H103.327V65.5469C103.327 68.304 104.007 70.2555 105.368 71.4014C106.729 72.5472 108.806 73.1201 111.599 73.1201V75H92.4775V73.1201C94.9482 73.1201 96.7744 72.5114 97.9561 71.2939C99.1377 70.0765 99.7285 68.0892 99.7285 65.332V31.2256C99.7285 29.9007 99.6211 28.7907 99.4062 27.8955C99.2272 27.0003 98.8512 26.2663 98.2783 25.6934C97.7054 25.1204 96.9176 24.7087 95.915 24.458C94.9482 24.2074 93.6771 24.082 92.1016 24.082V22.2021H116.003L128.518 53.7842L141.516 22.2021ZM216.818 22.2021H240.773V24.082C239.305 24.082 238.088 24.1715 237.121 24.3506C236.154 24.5296 235.384 24.8519 234.812 25.3174C234.239 25.7829 233.827 26.4453 233.576 27.3047C233.326 28.1283 233.2 29.1846 233.2 30.4736V66.084C233.2 67.6595 233.326 68.9128 233.576 69.8438C233.827 70.7747 234.221 71.4909 234.758 71.9922C235.331 72.4577 236.065 72.762 236.96 72.9053C237.855 73.0485 238.947 73.1201 240.236 73.1201V75H210.642V73.1201C212.253 73.1201 213.56 73.0306 214.562 72.8516C215.601 72.6367 216.407 72.2786 216.979 71.7773C217.552 71.2402 217.946 70.5241 218.161 69.6289C218.376 68.6979 218.483 67.5163 218.483 66.084V28.1641H218.269L199.094 75H197.214L178.952 30.4736H178.63V65.5469C178.63 68.304 179.31 70.2555 180.671 71.4014C182.032 72.5472 184.108 73.1201 186.901 73.1201V75H167.78V73.1201C170.251 73.1201 172.077 72.5114 173.259 71.2939C174.44 70.0765 175.031 68.0892 175.031 65.332V31.2256C175.031 29.9007 174.924 28.7907 174.709 27.8955C174.53 27.0003 174.154 26.2663 173.581 25.6934C173.008 25.1204 172.22 24.7087 171.218 24.458C170.251 24.2074 168.98 24.082 167.404 24.082V22.2021H191.306L203.82 53.7842L216.818 22.2021ZM306.086 48.7354C306.086 52.4593 305.388 56.0042 303.991 59.3701C302.631 62.736 300.643 65.6901 298.029 68.2324C295.451 70.7389 292.282 72.7441 288.522 74.248C284.799 75.7161 280.573 76.4502 275.847 76.4502C271.263 76.4502 267.11 75.7699 263.386 74.4092C259.698 73.0485 256.547 71.1507 253.933 68.7158C251.319 66.2451 249.296 63.3268 247.863 59.9609C246.431 56.5592 245.715 52.8174 245.715 48.7354C245.715 44.6891 246.449 40.9652 247.917 37.5635C249.385 34.126 251.444 31.1719 254.094 28.7012C256.779 26.2305 259.948 24.3148 263.601 22.9541C267.289 21.5576 271.335 20.8594 275.739 20.8594C279.821 20.8594 283.688 21.486 287.341 22.7393C291.029 23.9925 294.252 25.8187 297.009 28.2178C299.802 30.5811 302.004 33.4993 303.615 36.9727C305.262 40.4102 306.086 44.3311 306.086 48.7354ZM289.919 49.165C289.919 45.0114 289.561 41.3949 288.845 38.3154C288.164 35.2002 287.198 32.6221 285.944 30.5811C284.727 28.54 283.241 27.0182 281.486 26.0156C279.768 25.013 277.888 24.5117 275.847 24.5117C274.128 24.5117 272.427 24.9235 270.744 25.7471C269.061 26.5706 267.539 27.9134 266.179 29.7754C264.854 31.6374 263.762 34.0902 262.902 37.1338C262.079 40.1774 261.667 43.9193 261.667 48.3594C261.667 51.2598 261.882 54.1602 262.312 57.0605C262.777 59.9609 263.547 62.5749 264.621 64.9023C265.731 67.2298 267.181 69.1276 268.972 70.5957C270.798 72.0638 273.054 72.7979 275.739 72.7979C277.959 72.7979 279.947 72.2428 281.701 71.1328C283.456 70.0228 284.942 68.4473 286.159 66.4062C287.377 64.3294 288.308 61.8408 288.952 58.9404C289.597 56.04 289.919 52.7816 289.919 49.165ZM359.152 53.0859V31.5479C359.152 30.4378 359.027 29.4352 358.776 28.54C358.526 27.609 358.096 26.8213 357.487 26.1768C356.879 25.4964 356.037 24.9772 354.963 24.6191C353.889 24.2611 352.528 24.082 350.881 24.082V22.2021H370.217V24.082C367.782 24.082 365.956 24.6908 364.738 25.9082C363.557 27.0898 362.966 28.9697 362.966 31.5479V76.3428H360.979L322.038 33.8574V65.4395C322.038 66.6927 322.163 67.8027 322.414 68.7695C322.665 69.7005 323.112 70.4883 323.757 71.1328C324.401 71.7773 325.279 72.2786 326.389 72.6367C327.499 72.959 328.913 73.1201 330.632 73.1201V75H311.081V73.1201C313.552 73.1201 315.378 72.5114 316.56 71.2939C317.741 70.0765 318.332 68.1966 318.332 65.6543V29.9902L316.452 28.1641C315.629 27.3047 314.877 26.6243 314.196 26.123C313.552 25.5859 312.925 25.1742 312.316 24.8877C311.743 24.6012 311.171 24.4043 310.598 24.2969C310.061 24.1895 309.523 24.1178 308.986 24.082V22.2021H330.202L359.152 53.0859ZM375.48 37.4023C375.48 35.0391 375.928 32.8548 376.823 30.8496C377.754 28.8086 379.043 27.054 380.69 25.5859C382.338 24.082 384.289 22.9183 386.545 22.0947C388.837 21.2712 391.343 20.8594 394.064 20.8594C396.285 20.8594 398.236 21.0563 399.919 21.4502C401.602 21.8441 403.07 22.2738 404.323 22.7393C405.576 23.2048 406.651 23.6344 407.546 24.0283C408.441 24.4222 409.229 24.6191 409.909 24.6191C410.804 24.6191 411.503 24.2253 412.004 23.4375C412.505 22.6497 412.756 21.7904 412.756 20.8594H414.851V39.2285H412.756C412.111 37.1875 411.234 35.2539 410.124 33.4277C409.014 31.6016 407.725 30.026 406.257 28.7012C404.789 27.3405 403.124 26.2663 401.262 25.4785C399.436 24.6908 397.466 24.2969 395.354 24.2969C392.31 24.2969 390.018 24.9772 388.479 26.3379C386.975 27.6986 386.223 29.5068 386.223 31.7627C386.223 33.3024 386.688 34.6094 387.619 35.6836C388.55 36.722 389.768 37.6351 391.271 38.4229C392.775 39.1748 394.476 39.873 396.374 40.5176C398.272 41.1621 400.205 41.8604 402.175 42.6123C404.18 43.3285 406.114 44.152 407.976 45.083C409.873 45.9782 411.538 47.1061 412.971 48.4668C413.973 49.3978 414.761 50.3467 415.334 51.3135C415.943 52.2445 416.408 53.1755 416.73 54.1064C417.053 55.0374 417.25 55.9684 417.321 56.8994C417.429 57.7946 417.482 58.6898 417.482 59.585C417.482 61.984 417.035 64.222 416.14 66.2988C415.244 68.3398 413.92 70.1123 412.165 71.6162C410.41 73.1201 408.244 74.3018 405.666 75.1611C403.124 76.0205 400.17 76.4502 396.804 76.4502C394.548 76.4502 392.596 76.2712 390.949 75.9131C389.302 75.555 387.87 75.1611 386.652 74.7314C385.435 74.3018 384.379 73.9079 383.483 73.5498C382.624 73.1917 381.818 73.0127 381.066 73.0127C380.171 73.0127 379.455 73.2992 378.918 73.8721C378.381 74.445 377.862 75.3044 377.36 76.4502H375.373V56.2012H377.468C378.076 58.7435 378.954 61.0352 380.1 63.0762C381.281 65.1172 382.678 66.8538 384.289 68.2861C385.936 69.7184 387.78 70.8285 389.821 71.6162C391.862 72.404 394.082 72.7979 396.481 72.7979C399.883 72.7979 402.318 72.1354 403.786 70.8105C405.29 69.4499 406.042 67.6953 406.042 65.5469C406.042 63.8281 405.594 62.3958 404.699 61.25C403.84 60.0684 402.694 59.0479 401.262 58.1885C399.829 57.3291 398.2 56.5771 396.374 55.9326C394.548 55.2523 392.668 54.554 390.734 53.8379C388.837 53.1217 386.975 52.334 385.148 51.4746C383.322 50.6152 381.693 49.5589 380.261 48.3057C378.828 47.0524 377.665 45.5485 376.77 43.7939C375.91 42.0394 375.48 39.9089 375.48 37.4023ZM494.128 0.50293V25.7471H492.033C490.458 19.1585 487.521 14.1097 483.225 10.6006C478.928 7.09147 474.058 5.33691 468.615 5.33691C464.068 5.33691 459.896 6.64388 456.101 9.25781C452.305 11.8717 449.53 15.2913 447.775 19.5166C445.52 24.9235 444.392 30.9391 444.392 37.5635C444.392 44.0804 445.215 50.0244 446.862 55.3955C448.509 60.7308 451.088 64.777 454.597 67.5342C458.106 70.2555 462.653 71.6162 468.239 71.6162C472.823 71.6162 477.012 70.6136 480.808 68.6084C484.639 66.6032 488.667 63.1478 492.893 58.2422V64.5264C488.811 68.7874 484.549 71.8848 480.109 73.8184C475.705 75.7161 470.549 76.665 464.641 76.665C456.87 76.665 449.96 75.1074 443.908 71.9922C437.893 68.877 433.238 64.401 429.943 58.5645C426.685 52.7279 425.056 46.5153 425.056 39.9268C425.056 32.9801 426.864 26.3916 430.48 20.1611C434.133 13.9307 439.038 9.09668 445.197 5.65918C451.392 2.22168 457.963 0.50293 464.909 0.50293C470.03 0.50293 475.437 1.61296 481.13 3.83301C484.424 5.12207 486.519 5.7666 487.414 5.7666C488.56 5.7666 489.545 5.35482 490.368 4.53125C491.228 3.67188 491.783 2.3291 492.033 0.50293H494.128ZM564.436 48.7354C564.436 52.4593 563.737 56.0042 562.341 59.3701C560.98 62.736 558.993 65.6901 556.379 68.2324C553.801 70.7389 550.632 72.7441 546.872 74.248C543.148 75.7161 538.923 76.4502 534.196 76.4502C529.613 76.4502 525.459 75.7699 521.735 74.4092C518.047 73.0485 514.896 71.1507 512.282 68.7158C509.668 66.2451 507.645 63.3268 506.213 59.9609C504.781 56.5592 504.064 52.8174 504.064 48.7354C504.064 44.6891 504.799 40.9652 506.267 37.5635C507.735 34.126 509.794 31.1719 512.443 28.7012C515.129 26.2305 518.298 24.3148 521.95 22.9541C525.638 21.5576 529.685 20.8594 534.089 20.8594C538.171 20.8594 542.038 21.486 545.69 22.7393C549.379 23.9925 552.601 25.8187 555.358 28.2178C558.151 30.5811 560.354 33.4993 561.965 36.9727C563.612 40.4102 564.436 44.3311 564.436 48.7354ZM548.269 49.165C548.269 45.0114 547.91 41.3949 547.194 38.3154C546.514 35.2002 545.547 32.6221 544.294 30.5811C543.076 28.54 541.59 27.0182 539.836 26.0156C538.117 25.013 536.237 24.5117 534.196 24.5117C532.478 24.5117 530.777 24.9235 529.094 25.7471C527.411 26.5706 525.889 27.9134 524.528 29.7754C523.203 31.6374 522.111 34.0902 521.252 37.1338C520.428 40.1774 520.017 43.9193 520.017 48.3594C520.017 51.2598 520.231 54.1602 520.661 57.0605C521.127 59.9609 521.896 62.5749 522.971 64.9023C524.081 67.2298 525.531 69.1276 527.321 70.5957C529.147 72.0638 531.403 72.7979 534.089 72.7979C536.309 72.7979 538.296 72.2428 540.051 71.1328C541.805 70.0228 543.291 68.4473 544.509 66.4062C545.726 64.3294 546.657 61.8408 547.302 58.9404C547.946 56.04 548.269 52.7816 548.269 49.165ZM632.434 48.7354C632.434 52.4593 631.735 56.0042 630.339 59.3701C628.978 62.736 626.991 65.6901 624.377 68.2324C621.799 70.7389 618.63 72.7441 614.87 74.248C611.146 75.7161 606.921 76.4502 602.194 76.4502C597.611 76.4502 593.457 75.7699 589.733 74.4092C586.045 73.0485 582.894 71.1507 580.28 68.7158C577.666 66.2451 575.643 63.3268 574.211 59.9609C572.779 56.5592 572.062 52.8174 572.062 48.7354C572.062 44.6891 572.797 40.9652 574.265 37.5635C575.733 34.126 577.792 31.1719 580.441 28.7012C583.127 26.2305 586.296 24.3148 589.948 22.9541C593.636 21.5576 597.683 20.8594 602.087 20.8594C606.169 20.8594 610.036 21.486 613.688 22.7393C617.377 23.9925 620.599 25.8187 623.356 28.2178C626.149 30.5811 628.352 33.4993 629.963 36.9727C631.61 40.4102 632.434 44.3311 632.434 48.7354ZM616.267 49.165C616.267 45.0114 615.909 41.3949 615.192 38.3154C614.512 35.2002 613.545 32.6221 612.292 30.5811C611.075 28.54 609.589 27.0182 607.834 26.0156C606.115 25.013 604.235 24.5117 602.194 24.5117C600.476 24.5117 598.775 24.9235 597.092 25.7471C595.409 26.5706 593.887 27.9134 592.526 29.7754C591.201 31.6374 590.109 34.0902 589.25 37.1338C588.426 40.1774 588.015 43.9193 588.015 48.3594C588.015 51.2598 588.229 54.1602 588.659 57.0605C589.125 59.9609 589.895 62.5749 590.969 64.9023C592.079 67.2298 593.529 69.1276 595.319 70.5957C597.146 72.0638 599.401 72.7979 602.087 72.7979C604.307 72.7979 606.294 72.2428 608.049 71.1328C609.803 70.0228 611.289 68.4473 612.507 66.4062C613.724 64.3294 614.655 61.8408 615.3 58.9404C615.944 56.04 616.267 52.7816 616.267 49.165ZM659.504 65.9766C659.504 67.373 659.611 68.5368 659.826 69.4678C660.077 70.363 660.489 71.0791 661.062 71.6162C661.67 72.1533 662.476 72.5293 663.479 72.7441C664.481 72.959 665.734 73.0843 667.238 73.1201V75H637.536V73.1201C638.933 73.1201 640.096 73.0306 641.027 72.8516C641.994 72.6367 642.746 72.2607 643.283 71.7236C643.856 71.1865 644.268 70.4525 644.519 69.5215C644.769 68.5905 644.895 67.4089 644.895 65.9766V30.4736C644.895 28.0387 644.304 26.3737 643.122 25.4785C641.976 24.5475 640.025 24.082 637.268 24.082V22.2021H666.862C669.655 22.2021 672.341 22.4528 674.919 22.9541C677.533 23.4196 679.842 24.2253 681.848 25.3711C683.853 26.4811 685.446 27.9492 686.628 29.7754C687.845 31.6016 688.454 33.8395 688.454 36.4893C688.454 38.6735 688.007 40.7145 687.111 42.6123C686.252 44.4743 684.891 46.1035 683.029 47.5C681.167 48.8607 678.804 49.9349 675.939 50.7227C673.111 51.5104 669.727 51.9043 665.788 51.9043H659.504V65.9766ZM659.504 47.9297H662.243C665.466 47.9297 668.008 46.9987 669.87 45.1367C671.768 43.2389 672.717 40.4281 672.717 36.7041C672.717 35.057 672.538 33.5889 672.18 32.2998C671.822 30.9749 671.213 29.8649 670.354 28.9697C669.494 28.0745 668.348 27.3942 666.916 26.9287C665.484 26.4274 663.711 26.1768 661.599 26.1768H659.504V47.9297ZM714.289 45.835H716.169C717.637 45.835 718.98 45.6917 720.197 45.4053C721.415 45.1188 722.471 44.5817 723.366 43.7939C724.297 43.0062 725.031 41.9499 725.568 40.625C726.141 39.2643 726.499 37.5277 726.643 35.415H728.684V59.585H726.643C726.249 56.0758 725.192 53.5514 723.474 52.0117C721.755 50.472 719.535 49.7021 716.813 49.7021H714.289V65.1172C714.289 66.3346 714.361 67.3372 714.504 68.125C714.647 68.877 714.916 69.4678 715.31 69.8975C715.703 70.3271 716.241 70.6315 716.921 70.8105C717.601 70.9538 718.479 71.0254 719.553 71.0254H722.561C724.745 71.0254 726.732 70.7747 728.522 70.2734C730.313 69.7721 731.924 69.0023 733.356 67.9639C734.825 66.9255 736.114 65.6006 737.224 63.9893C738.369 62.3421 739.39 60.4085 740.285 58.1885H742.219L739.802 75H691.73V73.1201C693.485 73.1201 694.882 72.9769 695.92 72.6904C696.994 72.404 697.8 71.9743 698.337 71.4014C698.91 70.7926 699.268 70.0586 699.411 69.1992C699.59 68.304 699.68 67.2656 699.68 66.084V30.7959C699.68 29.5785 699.572 28.5579 699.357 27.7344C699.143 26.875 698.731 26.1768 698.122 25.6396C697.549 25.1025 696.743 24.7087 695.705 24.458C694.667 24.2074 693.342 24.082 691.73 24.082V22.2021H738.405V37.2949H736.525C736.132 35.5762 735.559 34.0186 734.807 32.6221C734.09 31.2256 733.16 30.0439 732.014 29.0771C730.868 28.0745 729.471 27.3047 727.824 26.7676C726.213 26.2305 724.315 25.9619 722.131 25.9619H714.289V45.835ZM766.066 65.9766C766.066 67.5163 766.192 68.7516 766.442 69.6826C766.693 70.5778 767.105 71.276 767.678 71.7773C768.286 72.2428 769.074 72.5651 770.041 72.7441C771.044 72.9232 772.297 73.0485 773.801 73.1201V75H744.099V73.1201C745.531 73.1201 746.713 73.0306 747.644 72.8516C748.575 72.6367 749.326 72.2786 749.899 71.7773C750.472 71.2402 750.866 70.5241 751.081 69.6289C751.332 68.6979 751.457 67.5163 751.457 66.084V30.3662C751.457 29.1846 751.35 28.1999 751.135 27.4121C750.956 26.6243 750.58 25.9798 750.007 25.4785C749.434 24.9772 748.646 24.6191 747.644 24.4043C746.677 24.1895 745.406 24.082 743.83 24.082V22.2021H773.425C777.399 22.2021 780.819 22.5423 783.684 23.2227C786.548 23.903 788.911 24.8698 790.773 26.123C792.671 27.3763 794.068 28.8981 794.963 30.6885C795.858 32.443 796.306 34.4124 796.306 36.5967C796.306 39.8193 795.249 42.4691 793.137 44.5459C791.06 46.6227 788.124 48.2699 784.328 49.4873L796.682 67.1045C799.51 71.0075 802.321 73.0127 805.114 73.1201V75H784.328L769.396 52.0117H766.066V65.9766ZM766.066 48.0371H768.806C771.097 48.0371 773.013 47.7148 774.553 47.0703C776.128 46.4258 777.382 45.5664 778.312 44.4922C779.279 43.418 779.96 42.2005 780.354 40.8398C780.747 39.4434 780.944 38.029 780.944 36.5967C780.944 33.2666 779.96 30.7064 777.99 28.916C776.057 27.0898 772.959 26.1768 768.698 26.1768H766.066V48.0371ZM27.7021 168.021V188.217C27.7021 192.156 27.9349 194.644 28.4004 195.683C28.9017 196.685 29.7611 197.491 30.9785 198.1C32.2318 198.708 34.5055 199.013 37.7998 199.013V201H0.792969V199.013C4.15885 199.013 6.43262 198.708 7.61426 198.1C8.83171 197.455 9.67318 196.632 10.1387 195.629C10.64 194.626 10.8906 192.156 10.8906 188.217V140.951C10.8906 137.012 10.64 134.542 10.1387 133.539C9.67318 132.501 8.83171 131.677 7.61426 131.068C6.39681 130.46 4.12305 130.155 0.792969 130.155V128.168H32.5361C42.9919 128.168 50.4935 130.03 55.041 133.754C59.5885 137.478 61.8623 142.133 61.8623 147.719C61.8623 152.445 60.3942 156.492 57.458 159.857C54.5218 163.223 50.4756 165.515 45.3193 166.732C41.846 167.592 35.9736 168.021 27.7021 168.021ZM27.7021 132.357V163.832C28.8838 163.904 29.779 163.939 30.3877 163.939C34.7562 163.939 38.1221 162.65 40.4854 160.072C42.8486 157.458 44.0303 153.43 44.0303 147.987C44.0303 142.58 42.8486 138.624 40.4854 136.117C38.1221 133.611 34.5951 132.357 29.9043 132.357H27.7021ZM80.876 186.176L78.3516 191.977C78.0651 192.693 77.8503 193.373 77.707 194.018C77.5996 194.626 77.5459 195.163 77.5459 195.629C77.5459 196.99 78.1725 197.921 79.4258 198.422C80.679 198.887 82.3262 199.12 84.3672 199.12V201H65.7832V199.12C67.8242 198.905 69.5609 198.01 70.9932 196.435C72.4255 194.823 73.804 192.46 75.1289 189.345L93.498 146.859H94.8408L114.284 191.762C115.502 194.411 116.719 196.309 117.937 197.455C119.154 198.565 120.515 199.12 122.019 199.12V201H94.5186V199.12C96.8818 199.12 98.5111 198.941 99.4062 198.583C100.337 198.225 100.803 197.634 100.803 196.811C100.803 196.488 100.749 196.148 100.642 195.79C100.57 195.432 100.391 194.966 100.104 194.394L96.6133 186.176H80.876ZM89.0938 166.786L82.3799 182.309H95.1631L89.0938 166.786ZM146.672 191.977C146.672 193.516 146.797 194.752 147.048 195.683C147.299 196.578 147.71 197.276 148.283 197.777C148.892 198.243 149.68 198.565 150.646 198.744C151.649 198.923 152.902 199.049 154.406 199.12V201H124.704V199.12C126.136 199.12 127.318 199.031 128.249 198.852C129.18 198.637 129.932 198.279 130.505 197.777C131.078 197.24 131.472 196.524 131.687 195.629C131.937 194.698 132.062 193.516 132.062 192.084V156.366C132.062 155.185 131.955 154.2 131.74 153.412C131.561 152.624 131.185 151.98 130.612 151.479C130.039 150.977 129.252 150.619 128.249 150.404C127.282 150.189 126.011 150.082 124.436 150.082V148.202H154.03C158.005 148.202 161.424 148.542 164.289 149.223C167.154 149.903 169.517 150.87 171.379 152.123C173.277 153.376 174.673 154.898 175.568 156.688C176.464 158.443 176.911 160.412 176.911 162.597C176.911 165.819 175.855 168.469 173.742 170.546C171.665 172.623 168.729 174.27 164.934 175.487L177.287 193.104C180.116 197.007 182.927 199.013 185.72 199.12V201H164.934L150.002 178.012H146.672V191.977ZM146.672 174.037H149.411C151.703 174.037 153.618 173.715 155.158 173.07C156.734 172.426 157.987 171.566 158.918 170.492C159.885 169.418 160.565 168.201 160.959 166.84C161.353 165.443 161.55 164.029 161.55 162.597C161.55 159.267 160.565 156.706 158.596 154.916C156.662 153.09 153.565 152.177 149.304 152.177H146.672V174.037ZM232.824 164.154H230.729C230.586 162.65 230.264 161.182 229.763 159.75C229.261 158.282 228.545 156.993 227.614 155.883C226.683 154.773 225.52 153.878 224.123 153.197C222.762 152.517 221.151 152.177 219.289 152.177H215.476V191.332C215.476 192.764 215.565 193.982 215.744 194.984C215.959 195.951 216.353 196.757 216.926 197.401C217.499 198.01 218.304 198.458 219.343 198.744C220.381 198.995 221.724 199.12 223.371 199.12V201H192.917V199.12C194.313 199.12 195.513 199.031 196.516 198.852C197.518 198.637 198.324 198.261 198.933 197.724C199.577 197.151 200.043 196.381 200.329 195.414C200.651 194.411 200.812 193.122 200.812 191.547V152.177H196.301C194.582 152.177 193.078 152.553 191.789 153.305C190.536 154.021 189.462 154.97 188.566 156.151C187.671 157.297 186.973 158.586 186.472 160.019C186.006 161.415 185.702 162.794 185.559 164.154H183.464V148.202H232.824V164.154ZM283.742 179.086V157.548C283.742 156.438 283.617 155.435 283.366 154.54C283.116 153.609 282.686 152.821 282.077 152.177C281.468 151.496 280.627 150.977 279.553 150.619C278.479 150.261 277.118 150.082 275.471 150.082V148.202H294.807V150.082C292.372 150.082 290.546 150.691 289.328 151.908C288.146 153.09 287.556 154.97 287.556 157.548V202.343H285.568L246.628 159.857V191.439C246.628 192.693 246.753 193.803 247.004 194.77C247.255 195.701 247.702 196.488 248.347 197.133C248.991 197.777 249.868 198.279 250.979 198.637C252.089 198.959 253.503 199.12 255.222 199.12V201H235.671V199.12C238.142 199.12 239.968 198.511 241.149 197.294C242.331 196.076 242.922 194.197 242.922 191.654V155.99L241.042 154.164C240.218 153.305 239.466 152.624 238.786 152.123C238.142 151.586 237.515 151.174 236.906 150.888C236.333 150.601 235.76 150.404 235.188 150.297C234.65 150.189 234.113 150.118 233.576 150.082V148.202H254.792L283.742 179.086ZM319.406 171.835H321.286C322.754 171.835 324.097 171.692 325.314 171.405C326.532 171.119 327.588 170.582 328.483 169.794C329.414 169.006 330.148 167.95 330.686 166.625C331.258 165.264 331.617 163.528 331.76 161.415H333.801V185.585H331.76C331.366 182.076 330.31 179.551 328.591 178.012C326.872 176.472 324.652 175.702 321.931 175.702H319.406V191.117C319.406 192.335 319.478 193.337 319.621 194.125C319.764 194.877 320.033 195.468 320.427 195.897C320.821 196.327 321.358 196.632 322.038 196.811C322.718 196.954 323.596 197.025 324.67 197.025H327.678C329.862 197.025 331.849 196.775 333.64 196.273C335.43 195.772 337.041 195.002 338.474 193.964C339.942 192.925 341.231 191.601 342.341 189.989C343.487 188.342 344.507 186.409 345.402 184.188H347.336L344.919 201H296.848V199.12C298.602 199.12 299.999 198.977 301.037 198.69C302.111 198.404 302.917 197.974 303.454 197.401C304.027 196.793 304.385 196.059 304.528 195.199C304.707 194.304 304.797 193.266 304.797 192.084V156.796C304.797 155.578 304.689 154.558 304.475 153.734C304.26 152.875 303.848 152.177 303.239 151.64C302.666 151.103 301.861 150.709 300.822 150.458C299.784 150.207 298.459 150.082 296.848 150.082V148.202H343.522V163.295H341.643C341.249 161.576 340.676 160.019 339.924 158.622C339.208 157.226 338.277 156.044 337.131 155.077C335.985 154.075 334.589 153.305 332.941 152.768C331.33 152.23 329.432 151.962 327.248 151.962H319.406V171.835ZM371.184 191.977C371.184 193.516 371.309 194.752 371.56 195.683C371.81 196.578 372.222 197.276 372.795 197.777C373.404 198.243 374.191 198.565 375.158 198.744C376.161 198.923 377.414 199.049 378.918 199.12V201H349.216V199.12C350.648 199.12 351.83 199.031 352.761 198.852C353.692 198.637 354.444 198.279 355.017 197.777C355.59 197.24 355.983 196.524 356.198 195.629C356.449 194.698 356.574 193.516 356.574 192.084V156.366C356.574 155.185 356.467 154.2 356.252 153.412C356.073 152.624 355.697 151.98 355.124 151.479C354.551 150.977 353.763 150.619 352.761 150.404C351.794 150.189 350.523 150.082 348.947 150.082V148.202H378.542C382.517 148.202 385.936 148.542 388.801 149.223C391.665 149.903 394.029 150.87 395.891 152.123C397.788 153.376 399.185 154.898 400.08 156.688C400.975 158.443 401.423 160.412 401.423 162.597C401.423 165.819 400.367 168.469 398.254 170.546C396.177 172.623 393.241 174.27 389.445 175.487L401.799 193.104C404.628 197.007 407.438 199.013 410.231 199.12V201H389.445L374.514 178.012H371.184V191.977ZM371.184 174.037H373.923C376.215 174.037 378.13 173.715 379.67 173.07C381.245 172.426 382.499 171.566 383.43 170.492C384.396 169.418 385.077 168.201 385.471 166.84C385.865 165.443 386.062 164.029 386.062 162.597C386.062 159.267 385.077 156.706 383.107 154.916C381.174 153.09 378.076 152.177 373.815 152.177H371.184V174.037ZM414.26 163.402C414.26 161.039 414.707 158.855 415.603 156.85C416.534 154.809 417.823 153.054 419.47 151.586C421.117 150.082 423.068 148.918 425.324 148.095C427.616 147.271 430.122 146.859 432.844 146.859C435.064 146.859 437.015 147.056 438.698 147.45C440.381 147.844 441.849 148.274 443.103 148.739C444.356 149.205 445.43 149.634 446.325 150.028C447.22 150.422 448.008 150.619 448.688 150.619C449.584 150.619 450.282 150.225 450.783 149.438C451.285 148.65 451.535 147.79 451.535 146.859H453.63V165.229H451.535C450.891 163.188 450.013 161.254 448.903 159.428C447.793 157.602 446.504 156.026 445.036 154.701C443.568 153.34 441.903 152.266 440.041 151.479C438.215 150.691 436.245 150.297 434.133 150.297C431.089 150.297 428.798 150.977 427.258 152.338C425.754 153.699 425.002 155.507 425.002 157.763C425.002 159.302 425.467 160.609 426.398 161.684C427.329 162.722 428.547 163.635 430.051 164.423C431.555 165.175 433.256 165.873 435.153 166.518C437.051 167.162 438.985 167.86 440.954 168.612C442.959 169.328 444.893 170.152 446.755 171.083C448.653 171.978 450.318 173.106 451.75 174.467C452.753 175.398 453.54 176.347 454.113 177.313C454.722 178.244 455.188 179.175 455.51 180.106C455.832 181.037 456.029 181.968 456.101 182.899C456.208 183.795 456.262 184.69 456.262 185.585C456.262 187.984 455.814 190.222 454.919 192.299C454.024 194.34 452.699 196.112 450.944 197.616C449.19 199.12 447.023 200.302 444.445 201.161C441.903 202.021 438.949 202.45 435.583 202.45C433.327 202.45 431.376 202.271 429.729 201.913C428.081 201.555 426.649 201.161 425.432 200.731C424.214 200.302 423.158 199.908 422.263 199.55C421.403 199.192 420.598 199.013 419.846 199.013C418.951 199.013 418.234 199.299 417.697 199.872C417.16 200.445 416.641 201.304 416.14 202.45H414.152V182.201H416.247C416.856 184.743 417.733 187.035 418.879 189.076C420.061 191.117 421.457 192.854 423.068 194.286C424.715 195.718 426.56 196.828 428.601 197.616C430.642 198.404 432.862 198.798 435.261 198.798C438.662 198.798 441.097 198.135 442.565 196.811C444.069 195.45 444.821 193.695 444.821 191.547C444.821 189.828 444.374 188.396 443.479 187.25C442.619 186.068 441.473 185.048 440.041 184.188C438.609 183.329 436.979 182.577 435.153 181.933C433.327 181.252 431.447 180.554 429.514 179.838C427.616 179.122 425.754 178.334 423.928 177.475C422.102 176.615 420.472 175.559 419.04 174.306C417.608 173.052 416.444 171.549 415.549 169.794C414.689 168.039 414.26 165.909 414.26 163.402Z" fill="#00569D"/>
</svg>
