<svg width="469" height="119" viewBox="0 0 469 119" fill="none" xmlns="http://www.w3.org/2000/svg">
<path d="M29.0625 0.65625L29.4062 14.7812H28.125C27.5208 11.2396 26.0312 8.39583 23.6562 6.25C21.3021 4.08333 18.75 3 16 3C13.875 3 12.1875 3.57292 10.9375 4.71875C9.70833 5.84375 9.09375 7.14583 9.09375 8.625C9.09375 9.5625 9.3125 10.3958 9.75 11.125C10.3542 12.1042 11.3229 13.0729 12.6562 14.0312C13.6354 14.7188 15.8958 15.9375 19.4375 17.6875C24.3958 20.125 27.7396 22.4271 29.4688 24.5938C31.1771 26.7604 32.0312 29.2396 32.0312 32.0312C32.0312 35.5729 30.6458 38.625 27.875 41.1875C25.125 43.7292 21.625 45 17.375 45C16.0417 45 14.7812 44.8646 13.5938 44.5938C12.4062 44.3229 10.9167 43.8125 9.125 43.0625C8.125 42.6458 7.30208 42.4375 6.65625 42.4375C6.11458 42.4375 5.54167 42.6458 4.9375 43.0625C4.33333 43.4792 3.84375 44.1146 3.46875 44.9688H2.3125V28.9688H3.46875C4.38542 33.4688 6.14583 36.9062 8.75 39.2812C11.375 41.6354 14.1979 42.8125 17.2188 42.8125C19.5521 42.8125 21.4062 42.1771 22.7812 40.9062C24.1771 39.6354 24.875 38.1562 24.875 36.4688C24.875 35.4688 24.6042 34.5 24.0625 33.5625C23.5417 32.625 22.7396 31.7396 21.6562 30.9062C20.5729 30.0521 18.6562 28.9479 15.9062 27.5938C12.0521 25.6979 9.28125 24.0833 7.59375 22.75C5.90625 21.4167 4.60417 19.9271 3.6875 18.2812C2.79167 16.6354 2.34375 14.8229 2.34375 12.8438C2.34375 9.46875 3.58333 6.59375 6.0625 4.21875C8.54167 1.84375 11.6667 0.65625 15.4375 0.65625C16.8125 0.65625 18.1458 0.822917 19.4375 1.15625C20.4167 1.40625 21.6042 1.875 23 2.5625C24.4167 3.22917 25.4062 3.5625 25.9688 3.5625C26.5104 3.5625 26.9375 3.39583 27.25 3.0625C27.5625 2.72917 27.8542 1.92708 28.125 0.65625H29.0625ZM52.5312 44H35.3438V42.9062C36.1771 42.9062 36.8646 42.8646 37.4062 42.7812C37.9688 42.6771 38.4167 42.4792 38.75 42.1875C39.0833 41.8958 39.3229 41.4792 39.4688 40.9375C39.6146 40.3958 39.6875 39.6875 39.6875 38.8125V18.5312C39.6875 17.5938 39.6042 16.8542 39.4375 16.3125C39.2917 15.7708 39.0417 15.3542 38.6875 15.0625C38.3333 14.7708 37.875 14.5833 37.3125 14.5C36.7708 14.4167 36.1146 14.375 35.3438 14.375V13.2812H52.5312V14.375C51.7188 14.375 51.0312 14.4167 50.4688 14.5C49.9271 14.5833 49.4792 14.7708 49.125 15.0625C48.7917 15.3542 48.5521 15.7708 48.4062 16.3125C48.2604 16.8542 48.1875 17.5938 48.1875 18.5312V38.8125C48.1875 39.6875 48.25 40.3958 48.375 40.9375C48.5 41.4583 48.7292 41.8646 49.0625 42.1562C49.3958 42.4479 49.8438 42.6458 50.4062 42.75C50.9688 42.8542 51.6771 42.9062 52.5312 42.9062V44ZM82.5 13.2812H96.4375V14.375C95.5833 14.375 94.875 14.4271 94.3125 14.5312C93.75 14.6354 93.3021 14.8229 92.9688 15.0938C92.6354 15.3646 92.3958 15.75 92.25 16.25C92.1042 16.7292 92.0312 17.3438 92.0312 18.0938V38.8125C92.0312 39.7292 92.1042 40.4583 92.25 41C92.3958 41.5417 92.625 41.9583 92.9375 42.25C93.2708 42.5208 93.6979 42.6979 94.2188 42.7812C94.7396 42.8646 95.375 42.9062 96.125 42.9062V44H78.9062V42.9062C79.8438 42.9062 80.6042 42.8542 81.1875 42.75C81.7917 42.625 82.2604 42.4167 82.5938 42.125C82.9271 41.8125 83.1562 41.3958 83.2812 40.875C83.4062 40.3333 83.4688 39.6458 83.4688 38.8125V16.75H83.3438L72.1875 44H71.0938L60.4688 18.0938H60.2812V38.5C60.2812 40.1042 60.6771 41.2396 61.4688 41.9062C62.2604 42.5729 63.4688 42.9062 65.0938 42.9062V44H53.9688V42.9062C55.4062 42.9062 56.4688 42.5521 57.1562 41.8438C57.8438 41.1354 58.1875 39.9792 58.1875 38.375V18.5312C58.1875 17.7604 58.125 17.1146 58 16.5938C57.8958 16.0729 57.6771 15.6458 57.3438 15.3125C57.0104 14.9792 56.5521 14.7396 55.9688 14.5938C55.4062 14.4479 54.6667 14.375 53.75 14.375V13.2812H67.6562L74.9375 31.6562L82.5 13.2812ZM126.312 13.2812H140.25V14.375C139.396 14.375 138.688 14.4271 138.125 14.5312C137.562 14.6354 137.115 14.8229 136.781 15.0938C136.448 15.3646 136.208 15.75 136.062 16.25C135.917 16.7292 135.844 17.3438 135.844 18.0938V38.8125C135.844 39.7292 135.917 40.4583 136.062 41C136.208 41.5417 136.438 41.9583 136.75 42.25C137.083 42.5208 137.51 42.6979 138.031 42.7812C138.552 42.8646 139.188 42.9062 139.938 42.9062V44H122.719V42.9062C123.656 42.9062 124.417 42.8542 125 42.75C125.604 42.625 126.073 42.4167 126.406 42.125C126.74 41.8125 126.969 41.3958 127.094 40.875C127.219 40.3333 127.281 39.6458 127.281 38.8125V16.75H127.156L116 44H114.906L104.281 18.0938H104.094V38.5C104.094 40.1042 104.49 41.2396 105.281 41.9062C106.073 42.5729 107.281 42.9062 108.906 42.9062V44H97.7812V42.9062C99.2188 42.9062 100.281 42.5521 100.969 41.8438C101.656 41.1354 102 39.9792 102 38.375V18.5312C102 17.7604 101.938 17.1146 101.812 16.5938C101.708 16.0729 101.49 15.6458 101.156 15.3125C100.823 14.9792 100.365 14.7396 99.7812 14.5938C99.2188 14.4479 98.4792 14.375 97.5625 14.375V13.2812H111.469L118.75 31.6562L126.312 13.2812ZM178.25 28.7188C178.25 30.8854 177.844 32.9479 177.031 34.9062C176.24 36.8646 175.083 38.5833 173.562 40.0625C172.062 41.5208 170.219 42.6875 168.031 43.5625C165.865 44.4167 163.406 44.8438 160.656 44.8438C157.99 44.8438 155.573 44.4479 153.406 43.6562C151.26 42.8646 149.427 41.7604 147.906 40.3438C146.385 38.9062 145.208 37.2083 144.375 35.25C143.542 33.2708 143.125 31.0938 143.125 28.7188C143.125 26.3646 143.552 24.1979 144.406 22.2188C145.26 20.2188 146.458 18.5 148 17.0625C149.562 15.625 151.406 14.5104 153.531 13.7188C155.677 12.9062 158.031 12.5 160.594 12.5C162.969 12.5 165.219 12.8646 167.344 13.5938C169.49 14.3229 171.365 15.3854 172.969 16.7812C174.594 18.1562 175.875 19.8542 176.812 21.875C177.771 23.875 178.25 26.1562 178.25 28.7188ZM168.844 28.9688C168.844 26.5521 168.635 24.4479 168.219 22.6562C167.823 20.8438 167.26 19.3438 166.531 18.1562C165.823 16.9688 164.958 16.0833 163.938 15.5C162.938 14.9167 161.844 14.625 160.656 14.625C159.656 14.625 158.667 14.8646 157.688 15.3438C156.708 15.8229 155.823 16.6042 155.031 17.6875C154.26 18.7708 153.625 20.1979 153.125 21.9688C152.646 23.7396 152.406 25.9167 152.406 28.5C152.406 30.1875 152.531 31.875 152.781 33.5625C153.052 35.25 153.5 36.7708 154.125 38.125C154.771 39.4792 155.615 40.5833 156.656 41.4375C157.719 42.2917 159.031 42.7188 160.594 42.7188C161.885 42.7188 163.042 42.3958 164.062 41.75C165.083 41.1042 165.948 40.1875 166.656 39C167.365 37.7917 167.906 36.3438 168.281 34.6562C168.656 32.9688 168.844 31.0729 168.844 28.9688ZM209.125 31.25V18.7188C209.125 18.0729 209.052 17.4896 208.906 16.9688C208.76 16.4271 208.51 15.9688 208.156 15.5938C207.802 15.1979 207.312 14.8958 206.688 14.6875C206.062 14.4792 205.271 14.375 204.312 14.375V13.2812H215.562V14.375C214.146 14.375 213.083 14.7292 212.375 15.4375C211.688 16.125 211.344 17.2188 211.344 18.7188V44.7812H210.188L187.531 20.0625V38.4375C187.531 39.1667 187.604 39.8125 187.75 40.375C187.896 40.9167 188.156 41.375 188.531 41.75C188.906 42.125 189.417 42.4167 190.062 42.625C190.708 42.8125 191.531 42.9062 192.531 42.9062V44H181.156V42.9062C182.594 42.9062 183.656 42.5521 184.344 41.8438C185.031 41.1354 185.375 40.0417 185.375 38.5625V17.8125L184.281 16.75C183.802 16.25 183.365 15.8542 182.969 15.5625C182.594 15.25 182.229 15.0104 181.875 14.8438C181.542 14.6771 181.208 14.5625 180.875 14.5C180.562 14.4375 180.25 14.3958 179.938 14.375V13.2812H192.281L209.125 31.25ZM218.625 22.125C218.625 20.75 218.885 19.4792 219.406 18.3125C219.948 17.125 220.698 16.1042 221.656 15.25C222.615 14.375 223.75 13.6979 225.062 13.2188C226.396 12.7396 227.854 12.5 229.438 12.5C230.729 12.5 231.865 12.6146 232.844 12.8438C233.823 13.0729 234.677 13.3229 235.406 13.5938C236.135 13.8646 236.76 14.1146 237.281 14.3438C237.802 14.5729 238.26 14.6875 238.656 14.6875C239.177 14.6875 239.583 14.4583 239.875 14C240.167 13.5417 240.312 13.0417 240.312 12.5H241.531V23.1875H240.312C239.938 22 239.427 20.875 238.781 19.8125C238.135 18.75 237.385 17.8333 236.531 17.0625C235.677 16.2708 234.708 15.6458 233.625 15.1875C232.562 14.7292 231.417 14.5 230.188 14.5C228.417 14.5 227.083 14.8958 226.188 15.6875C225.312 16.4792 224.875 17.5312 224.875 18.8438C224.875 19.7396 225.146 20.5 225.688 21.125C226.229 21.7292 226.938 22.2604 227.812 22.7188C228.688 23.1562 229.677 23.5625 230.781 23.9375C231.885 24.3125 233.01 24.7188 234.156 25.1562C235.323 25.5729 236.448 26.0521 237.531 26.5938C238.635 27.1146 239.604 27.7708 240.438 28.5625C241.021 29.1042 241.479 29.6562 241.812 30.2188C242.167 30.7604 242.438 31.3021 242.625 31.8438C242.812 32.3854 242.927 32.9271 242.969 33.4688C243.031 33.9896 243.062 34.5104 243.062 35.0312C243.062 36.4271 242.802 37.7292 242.281 38.9375C241.76 40.125 240.99 41.1562 239.969 42.0312C238.948 42.9062 237.688 43.5938 236.188 44.0938C234.708 44.5938 232.99 44.8438 231.031 44.8438C229.719 44.8438 228.583 44.7396 227.625 44.5312C226.667 44.3229 225.833 44.0938 225.125 43.8438C224.417 43.5938 223.802 43.3646 223.281 43.1562C222.781 42.9479 222.312 42.8438 221.875 42.8438C221.354 42.8438 220.938 43.0104 220.625 43.3438C220.312 43.6771 220.01 44.1771 219.719 44.8438H218.562V33.0625H219.781C220.135 34.5417 220.646 35.875 221.312 37.0625C222 38.25 222.812 39.2604 223.75 40.0938C224.708 40.9271 225.781 41.5729 226.969 42.0312C228.156 42.4896 229.448 42.7188 230.844 42.7188C232.823 42.7188 234.24 42.3333 235.094 41.5625C235.969 40.7708 236.406 39.75 236.406 38.5C236.406 37.5 236.146 36.6667 235.625 36C235.125 35.3125 234.458 34.7188 233.625 34.2188C232.792 33.7188 231.844 33.2812 230.781 32.9062C229.719 32.5104 228.625 32.1042 227.5 31.6875C226.396 31.2708 225.312 30.8125 224.25 30.3125C223.188 29.8125 222.24 29.1979 221.406 28.4688C220.573 27.7396 219.896 26.8646 219.375 25.8438C218.875 24.8229 218.625 23.5833 218.625 22.125ZM287.656 0.65625V15.3438H286.438C285.521 11.5104 283.812 8.57292 281.312 6.53125C278.812 4.48958 275.979 3.46875 272.812 3.46875C270.167 3.46875 267.74 4.22917 265.531 5.75C263.323 7.27083 261.708 9.26042 260.688 11.7188C259.375 14.8646 258.719 18.3646 258.719 22.2188C258.719 26.0104 259.198 29.4688 260.156 32.5938C261.115 35.6979 262.615 38.0521 264.656 39.6562C266.698 41.2396 269.344 42.0312 272.594 42.0312C275.26 42.0312 277.698 41.4479 279.906 40.2812C282.135 39.1146 284.479 37.1042 286.938 34.25V37.9062C284.562 40.3854 282.083 42.1875 279.5 43.3125C276.938 44.4167 273.938 44.9688 270.5 44.9688C265.979 44.9688 261.958 44.0625 258.438 42.25C254.938 40.4375 252.229 37.8333 250.312 34.4375C248.417 31.0417 247.469 27.4271 247.469 23.5938C247.469 19.5521 248.521 15.7188 250.625 12.0938C252.75 8.46875 255.604 5.65625 259.188 3.65625C262.792 1.65625 266.615 0.65625 270.656 0.65625C273.635 0.65625 276.781 1.30208 280.094 2.59375C282.01 3.34375 283.229 3.71875 283.75 3.71875C284.417 3.71875 284.99 3.47917 285.469 3C285.969 2.5 286.292 1.71875 286.438 0.65625H287.656ZM328.562 28.7188C328.562 30.8854 328.156 32.9479 327.344 34.9062C326.552 36.8646 325.396 38.5833 323.875 40.0625C322.375 41.5208 320.531 42.6875 318.344 43.5625C316.177 44.4167 313.719 44.8438 310.969 44.8438C308.302 44.8438 305.885 44.4479 303.719 43.6562C301.573 42.8646 299.74 41.7604 298.219 40.3438C296.698 38.9062 295.521 37.2083 294.688 35.25C293.854 33.2708 293.438 31.0938 293.438 28.7188C293.438 26.3646 293.865 24.1979 294.719 22.2188C295.573 20.2188 296.771 18.5 298.312 17.0625C299.875 15.625 301.719 14.5104 303.844 13.7188C305.99 12.9062 308.344 12.5 310.906 12.5C313.281 12.5 315.531 12.8646 317.656 13.5938C319.802 14.3229 321.677 15.3854 323.281 16.7812C324.906 18.1562 326.188 19.8542 327.125 21.875C328.083 23.875 328.562 26.1562 328.562 28.7188ZM319.156 28.9688C319.156 26.5521 318.948 24.4479 318.531 22.6562C318.135 20.8438 317.573 19.3438 316.844 18.1562C316.135 16.9688 315.271 16.0833 314.25 15.5C313.25 14.9167 312.156 14.625 310.969 14.625C309.969 14.625 308.979 14.8646 308 15.3438C307.021 15.8229 306.135 16.6042 305.344 17.6875C304.573 18.7708 303.938 20.1979 303.438 21.9688C302.958 23.7396 302.719 25.9167 302.719 28.5C302.719 30.1875 302.844 31.875 303.094 33.5625C303.365 35.25 303.812 36.7708 304.438 38.125C305.083 39.4792 305.927 40.5833 306.969 41.4375C308.031 42.2917 309.344 42.7188 310.906 42.7188C312.198 42.7188 313.354 42.3958 314.375 41.75C315.396 41.1042 316.26 40.1875 316.969 39C317.677 37.7917 318.219 36.3438 318.594 34.6562C318.969 32.9688 319.156 31.0729 319.156 28.9688ZM368.125 28.7188C368.125 30.8854 367.719 32.9479 366.906 34.9062C366.115 36.8646 364.958 38.5833 363.438 40.0625C361.938 41.5208 360.094 42.6875 357.906 43.5625C355.74 44.4167 353.281 44.8438 350.531 44.8438C347.865 44.8438 345.448 44.4479 343.281 43.6562C341.135 42.8646 339.302 41.7604 337.781 40.3438C336.26 38.9062 335.083 37.2083 334.25 35.25C333.417 33.2708 333 31.0938 333 28.7188C333 26.3646 333.427 24.1979 334.281 22.2188C335.135 20.2188 336.333 18.5 337.875 17.0625C339.438 15.625 341.281 14.5104 343.406 13.7188C345.552 12.9062 347.906 12.5 350.469 12.5C352.844 12.5 355.094 12.8646 357.219 13.5938C359.365 14.3229 361.24 15.3854 362.844 16.7812C364.469 18.1562 365.75 19.8542 366.688 21.875C367.646 23.875 368.125 26.1562 368.125 28.7188ZM358.719 28.9688C358.719 26.5521 358.51 24.4479 358.094 22.6562C357.698 20.8438 357.135 19.3438 356.406 18.1562C355.698 16.9688 354.833 16.0833 353.812 15.5C352.812 14.9167 351.719 14.625 350.531 14.625C349.531 14.625 348.542 14.8646 347.562 15.3438C346.583 15.8229 345.698 16.6042 344.906 17.6875C344.135 18.7708 343.5 20.1979 343 21.9688C342.521 23.7396 342.281 25.9167 342.281 28.5C342.281 30.1875 342.406 31.875 342.656 33.5625C342.927 35.25 343.375 36.7708 344 38.125C344.646 39.4792 345.49 40.5833 346.531 41.4375C347.594 42.2917 348.906 42.7188 350.469 42.7188C351.76 42.7188 352.917 42.3958 353.938 41.75C354.958 41.1042 355.823 40.1875 356.531 39C357.24 37.7917 357.781 36.3438 358.156 34.6562C358.531 32.9688 358.719 31.0729 358.719 28.9688ZM383.875 38.75C383.875 39.5625 383.938 40.2396 384.062 40.7812C384.208 41.3021 384.448 41.7188 384.781 42.0312C385.135 42.3438 385.604 42.5625 386.188 42.6875C386.771 42.8125 387.5 42.8854 388.375 42.9062V44H371.094V42.9062C371.906 42.9062 372.583 42.8542 373.125 42.75C373.688 42.625 374.125 42.4062 374.438 42.0938C374.771 41.7812 375.01 41.3542 375.156 40.8125C375.302 40.2708 375.375 39.5833 375.375 38.75V18.0938C375.375 16.6771 375.031 15.7083 374.344 15.1875C373.677 14.6458 372.542 14.375 370.938 14.375V13.2812H388.156C389.781 13.2812 391.344 13.4271 392.844 13.7188C394.365 13.9896 395.708 14.4583 396.875 15.125C398.042 15.7708 398.969 16.625 399.656 17.6875C400.365 18.75 400.719 20.0521 400.719 21.5938C400.719 22.8646 400.458 24.0521 399.938 25.1562C399.438 26.2396 398.646 27.1875 397.562 28C396.479 28.7917 395.104 29.4167 393.438 29.875C391.792 30.3333 389.823 30.5625 387.531 30.5625H383.875V38.75ZM383.875 28.25H385.469C387.344 28.25 388.823 27.7083 389.906 26.625C391.01 25.5208 391.562 23.8854 391.562 21.7188C391.562 20.7604 391.458 19.9062 391.25 19.1562C391.042 18.3854 390.688 17.7396 390.188 17.2188C389.688 16.6979 389.021 16.3021 388.188 16.0312C387.354 15.7396 386.323 15.5938 385.094 15.5938H383.875V28.25ZM415.75 27.0312H416.844C417.698 27.0312 418.479 26.9479 419.188 26.7812C419.896 26.6146 420.51 26.3021 421.031 25.8438C421.573 25.3854 422 24.7708 422.312 24C422.646 23.2083 422.854 22.1979 422.938 20.9688H424.125V35.0312H422.938C422.708 32.9896 422.094 31.5208 421.094 30.625C420.094 29.7292 418.802 29.2812 417.219 29.2812H415.75V38.25C415.75 38.9583 415.792 39.5417 415.875 40C415.958 40.4375 416.115 40.7812 416.344 41.0312C416.573 41.2812 416.885 41.4583 417.281 41.5625C417.677 41.6458 418.188 41.6875 418.812 41.6875H420.562C421.833 41.6875 422.99 41.5417 424.031 41.25C425.073 40.9583 426.01 40.5104 426.844 39.9062C427.698 39.3021 428.448 38.5312 429.094 37.5938C429.76 36.6354 430.354 35.5104 430.875 34.2188H432L430.594 44H402.625V42.9062C403.646 42.9062 404.458 42.8229 405.062 42.6562C405.688 42.4896 406.156 42.2396 406.469 41.9062C406.802 41.5521 407.01 41.125 407.094 40.625C407.198 40.1042 407.25 39.5 407.25 38.8125V18.2812C407.25 17.5729 407.188 16.9792 407.062 16.5C406.938 16 406.698 15.5938 406.344 15.2812C406.01 14.9688 405.542 14.7396 404.938 14.5938C404.333 14.4479 403.562 14.375 402.625 14.375V13.2812H429.781V22.0625H428.688C428.458 21.0625 428.125 20.1562 427.688 19.3438C427.271 18.5312 426.729 17.8438 426.062 17.2812C425.396 16.6979 424.583 16.25 423.625 15.9375C422.688 15.625 421.583 15.4688 420.312 15.4688H415.75V27.0312ZM445.875 38.75C445.875 39.6458 445.948 40.3646 446.094 40.9062C446.24 41.4271 446.479 41.8333 446.812 42.125C447.167 42.3958 447.625 42.5833 448.188 42.6875C448.771 42.7917 449.5 42.8646 450.375 42.9062V44H433.094V42.9062C433.927 42.9062 434.615 42.8542 435.156 42.75C435.698 42.625 436.135 42.4167 436.469 42.125C436.802 41.8125 437.031 41.3958 437.156 40.875C437.302 40.3333 437.375 39.6458 437.375 38.8125V18.0312C437.375 17.3438 437.312 16.7708 437.188 16.3125C437.083 15.8542 436.865 15.4792 436.531 15.1875C436.198 14.8958 435.74 14.6875 435.156 14.5625C434.594 14.4375 433.854 14.375 432.938 14.375V13.2812H450.156C452.469 13.2812 454.458 13.4792 456.125 13.875C457.792 14.2708 459.167 14.8333 460.25 15.5625C461.354 16.2917 462.167 17.1771 462.688 18.2188C463.208 19.2396 463.469 20.3854 463.469 21.6562C463.469 23.5312 462.854 25.0729 461.625 26.2812C460.417 27.4896 458.708 28.4479 456.5 29.1562L463.688 39.4062C465.333 41.6771 466.969 42.8438 468.594 42.9062V44H456.5L447.812 30.625H445.875V38.75ZM445.875 28.3125H447.469C448.802 28.3125 449.917 28.125 450.812 27.75C451.729 27.375 452.458 26.875 453 26.25C453.562 25.625 453.958 24.9167 454.188 24.125C454.417 23.3125 454.531 22.4896 454.531 21.6562C454.531 19.7188 453.958 18.2292 452.812 17.1875C451.688 16.125 449.885 15.5938 447.406 15.5938H445.875V28.3125ZM16.2812 98.8125V110.562C16.2812 112.854 16.4167 114.302 16.6875 114.906C16.9792 115.49 17.4792 115.958 18.1875 116.312C18.9167 116.667 20.2396 116.844 22.1562 116.844V118H0.625V116.844C2.58333 116.844 3.90625 116.667 4.59375 116.312C5.30208 115.938 5.79167 115.458 6.0625 114.875C6.35417 114.292 6.5 112.854 6.5 110.562V83.0625C6.5 80.7708 6.35417 79.3333 6.0625 78.75C5.79167 78.1458 5.30208 77.6667 4.59375 77.3125C3.88542 76.9583 2.5625 76.7812 0.625 76.7812V75.625H19.0938C25.1771 75.625 29.5417 76.7083 32.1875 78.875C34.8333 81.0417 36.1562 83.75 36.1562 87C36.1562 89.75 35.3021 92.1042 33.5938 94.0625C31.8854 96.0208 29.5312 97.3542 26.5312 98.0625C24.5104 98.5625 21.0938 98.8125 16.2812 98.8125ZM16.2812 78.0625V96.375C16.9688 96.4167 17.4896 96.4375 17.8438 96.4375C20.3854 96.4375 22.3438 95.6875 23.7188 94.1875C25.0938 92.6667 25.7812 90.3229 25.7812 87.1562C25.7812 84.0104 25.0938 81.7083 23.7188 80.25C22.3438 78.7917 20.2917 78.0625 17.5625 78.0625H16.2812ZM47.2188 109.375L45.75 112.75C45.5833 113.167 45.4583 113.562 45.375 113.938C45.3125 114.292 45.2812 114.604 45.2812 114.875C45.2812 115.667 45.6458 116.208 46.375 116.5C47.1042 116.771 48.0625 116.906 49.25 116.906V118H38.4375V116.906C39.625 116.781 40.6354 116.26 41.4688 115.344C42.3021 114.406 43.1042 113.031 43.875 111.219L54.5625 86.5H55.3438L66.6562 112.625C67.3646 114.167 68.0729 115.271 68.7812 115.938C69.4896 116.583 70.2812 116.906 71.1562 116.906V118H55.1562V116.906C56.5312 116.906 57.4792 116.802 58 116.594C58.5417 116.385 58.8125 116.042 58.8125 115.562C58.8125 115.375 58.7812 115.177 58.7188 114.969C58.6771 114.76 58.5729 114.49 58.4062 114.156L56.375 109.375H47.2188ZM52 98.0938L48.0938 107.125H55.5312L52 98.0938ZM85.5 112.75C85.5 113.646 85.5729 114.365 85.7188 114.906C85.8646 115.427 86.1042 115.833 86.4375 116.125C86.7917 116.396 87.25 116.583 87.8125 116.688C88.3958 116.792 89.125 116.865 90 116.906V118H72.7188V116.906C73.5521 116.906 74.2396 116.854 74.7812 116.75C75.3229 116.625 75.7604 116.417 76.0938 116.125C76.4271 115.812 76.6562 115.396 76.7812 114.875C76.9271 114.333 77 113.646 77 112.812V92.0312C77 91.3438 76.9375 90.7708 76.8125 90.3125C76.7083 89.8542 76.4896 89.4792 76.1562 89.1875C75.8229 88.8958 75.3646 88.6875 74.7812 88.5625C74.2188 88.4375 73.4792 88.375 72.5625 88.375V87.2812H89.7812C92.0938 87.2812 94.0833 87.4792 95.75 87.875C97.4167 88.2708 98.7917 88.8333 99.875 89.5625C100.979 90.2917 101.792 91.1771 102.312 92.2188C102.833 93.2396 103.094 94.3854 103.094 95.6562C103.094 97.5312 102.479 99.0729 101.25 100.281C100.042 101.49 98.3333 102.448 96.125 103.156L103.312 113.406C104.958 115.677 106.594 116.844 108.219 116.906V118H96.125L87.4375 104.625H85.5V112.75ZM85.5 102.312H87.0938C88.4271 102.312 89.5417 102.125 90.4375 101.75C91.3542 101.375 92.0833 100.875 92.625 100.25C93.1875 99.625 93.5833 98.9167 93.8125 98.125C94.0417 97.3125 94.1562 96.4896 94.1562 95.6562C94.1562 93.7188 93.5833 92.2292 92.4375 91.1875C91.3125 90.125 89.5104 89.5938 87.0312 89.5938H85.5V102.312ZM135.625 96.5625H134.406C134.323 95.6875 134.135 94.8333 133.844 94C133.552 93.1458 133.135 92.3958 132.594 91.75C132.052 91.1042 131.375 90.5833 130.562 90.1875C129.771 89.7917 128.833 89.5938 127.75 89.5938H125.531V112.375C125.531 113.208 125.583 113.917 125.688 114.5C125.812 115.062 126.042 115.531 126.375 115.906C126.708 116.26 127.177 116.521 127.781 116.688C128.385 116.833 129.167 116.906 130.125 116.906V118H112.406V116.906C113.219 116.906 113.917 116.854 114.5 116.75C115.083 116.625 115.552 116.406 115.906 116.094C116.281 115.76 116.552 115.312 116.719 114.75C116.906 114.167 117 113.417 117 112.5V89.5938H114.375C113.375 89.5938 112.5 89.8125 111.75 90.25C111.021 90.6667 110.396 91.2188 109.875 91.9062C109.354 92.5729 108.948 93.3229 108.656 94.1562C108.385 94.9688 108.208 95.7708 108.125 96.5625H106.906V87.2812H135.625V96.5625ZM165.25 105.25V92.7188C165.25 92.0729 165.177 91.4896 165.031 90.9688C164.885 90.4271 164.635 89.9688 164.281 89.5938C163.927 89.1979 163.438 88.8958 162.812 88.6875C162.188 88.4792 161.396 88.375 160.438 88.375V87.2812H171.688V88.375C170.271 88.375 169.208 88.7292 168.5 89.4375C167.812 90.125 167.469 91.2188 167.469 92.7188V118.781H166.312L143.656 94.0625V112.438C143.656 113.167 143.729 113.812 143.875 114.375C144.021 114.917 144.281 115.375 144.656 115.75C145.031 116.125 145.542 116.417 146.188 116.625C146.833 116.812 147.656 116.906 148.656 116.906V118H137.281V116.906C138.719 116.906 139.781 116.552 140.469 115.844C141.156 115.135 141.5 114.042 141.5 112.562V91.8125L140.406 90.75C139.927 90.25 139.49 89.8542 139.094 89.5625C138.719 89.25 138.354 89.0104 138 88.8438C137.667 88.6771 137.333 88.5625 137 88.5C136.688 88.4375 136.375 88.3958 136.062 88.375V87.2812H148.406L165.25 105.25ZM186 101.031H187.094C187.948 101.031 188.729 100.948 189.438 100.781C190.146 100.615 190.76 100.302 191.281 99.8438C191.823 99.3854 192.25 98.7708 192.562 98C192.896 97.2083 193.104 96.1979 193.188 94.9688H194.375V109.031H193.188C192.958 106.99 192.344 105.521 191.344 104.625C190.344 103.729 189.052 103.281 187.469 103.281H186V112.25C186 112.958 186.042 113.542 186.125 114C186.208 114.438 186.365 114.781 186.594 115.031C186.823 115.281 187.135 115.458 187.531 115.562C187.927 115.646 188.438 115.688 189.062 115.688H190.812C192.083 115.688 193.24 115.542 194.281 115.25C195.323 114.958 196.26 114.51 197.094 113.906C197.948 113.302 198.698 112.531 199.344 111.594C200.01 110.635 200.604 109.51 201.125 108.219H202.25L200.844 118H172.875V116.906C173.896 116.906 174.708 116.823 175.312 116.656C175.938 116.49 176.406 116.24 176.719 115.906C177.052 115.552 177.26 115.125 177.344 114.625C177.448 114.104 177.5 113.5 177.5 112.812V92.2812C177.5 91.5729 177.438 90.9792 177.312 90.5C177.188 90 176.948 89.5938 176.594 89.2812C176.26 88.9688 175.792 88.7396 175.188 88.5938C174.583 88.4479 173.812 88.375 172.875 88.375V87.2812H200.031V96.0625H198.938C198.708 95.0625 198.375 94.1562 197.938 93.3438C197.521 92.5312 196.979 91.8438 196.312 91.2812C195.646 90.6979 194.833 90.25 193.875 89.9375C192.938 89.625 191.833 89.4688 190.562 89.4688H186V101.031ZM216.125 112.75C216.125 113.646 216.198 114.365 216.344 114.906C216.49 115.427 216.729 115.833 217.062 116.125C217.417 116.396 217.875 116.583 218.438 116.688C219.021 116.792 219.75 116.865 220.625 116.906V118H203.344V116.906C204.177 116.906 204.865 116.854 205.406 116.75C205.948 116.625 206.385 116.417 206.719 116.125C207.052 115.812 207.281 115.396 207.406 114.875C207.552 114.333 207.625 113.646 207.625 112.812V92.0312C207.625 91.3438 207.562 90.7708 207.438 90.3125C207.333 89.8542 207.115 89.4792 206.781 89.1875C206.448 88.8958 205.99 88.6875 205.406 88.5625C204.844 88.4375 204.104 88.375 203.188 88.375V87.2812H220.406C222.719 87.2812 224.708 87.4792 226.375 87.875C228.042 88.2708 229.417 88.8333 230.5 89.5625C231.604 90.2917 232.417 91.1771 232.938 92.2188C233.458 93.2396 233.719 94.3854 233.719 95.6562C233.719 97.5312 233.104 99.0729 231.875 100.281C230.667 101.49 228.958 102.448 226.75 103.156L233.938 113.406C235.583 115.677 237.219 116.844 238.844 116.906V118H226.75L218.062 104.625H216.125V112.75ZM216.125 102.312H217.719C219.052 102.312 220.167 102.125 221.062 101.75C221.979 101.375 222.708 100.875 223.25 100.25C223.812 99.625 224.208 98.9167 224.438 98.125C224.667 97.3125 224.781 96.4896 224.781 95.6562C224.781 93.7188 224.208 92.2292 223.062 91.1875C221.938 90.125 220.135 89.5938 217.656 89.5938H216.125V102.312ZM241.188 96.125C241.188 94.75 241.448 93.4792 241.969 92.3125C242.51 91.125 243.26 90.1042 244.219 89.25C245.177 88.375 246.312 87.6979 247.625 87.2188C248.958 86.7396 250.417 86.5 252 86.5C253.292 86.5 254.427 86.6146 255.406 86.8438C256.385 87.0729 257.24 87.3229 257.969 87.5938C258.698 87.8646 259.323 88.1146 259.844 88.3438C260.365 88.5729 260.823 88.6875 261.219 88.6875C261.74 88.6875 262.146 88.4583 262.438 88C262.729 87.5417 262.875 87.0417 262.875 86.5H264.094V97.1875H262.875C262.5 96 261.99 94.875 261.344 93.8125C260.698 92.75 259.948 91.8333 259.094 91.0625C258.24 90.2708 257.271 89.6458 256.188 89.1875C255.125 88.7292 253.979 88.5 252.75 88.5C250.979 88.5 249.646 88.8958 248.75 89.6875C247.875 90.4792 247.438 91.5312 247.438 92.8438C247.438 93.7396 247.708 94.5 248.25 95.125C248.792 95.7292 249.5 96.2604 250.375 96.7188C251.25 97.1562 252.24 97.5625 253.344 97.9375C254.448 98.3125 255.573 98.7188 256.719 99.1562C257.885 99.5729 259.01 100.052 260.094 100.594C261.198 101.115 262.167 101.771 263 102.562C263.583 103.104 264.042 103.656 264.375 104.219C264.729 104.76 265 105.302 265.188 105.844C265.375 106.385 265.49 106.927 265.531 107.469C265.594 107.99 265.625 108.51 265.625 109.031C265.625 110.427 265.365 111.729 264.844 112.938C264.323 114.125 263.552 115.156 262.531 116.031C261.51 116.906 260.25 117.594 258.75 118.094C257.271 118.594 255.552 118.844 253.594 118.844C252.281 118.844 251.146 118.74 250.188 118.531C249.229 118.323 248.396 118.094 247.688 117.844C246.979 117.594 246.365 117.365 245.844 117.156C245.344 116.948 244.875 116.844 244.438 116.844C243.917 116.844 243.5 117.01 243.188 117.344C242.875 117.677 242.573 118.177 242.281 118.844H241.125V107.062H242.344C242.698 108.542 243.208 109.875 243.875 111.062C244.562 112.25 245.375 113.26 246.312 114.094C247.271 114.927 248.344 115.573 249.531 116.031C250.719 116.49 252.01 116.719 253.406 116.719C255.385 116.719 256.802 116.333 257.656 115.562C258.531 114.771 258.969 113.75 258.969 112.5C258.969 111.5 258.708 110.667 258.188 110C257.688 109.312 257.021 108.719 256.188 108.219C255.354 107.719 254.406 107.281 253.344 106.906C252.281 106.51 251.188 106.104 250.062 105.688C248.958 105.271 247.875 104.812 246.812 104.312C245.75 103.812 244.802 103.198 243.969 102.469C243.135 101.74 242.458 100.865 241.938 99.8438C241.438 98.8229 241.188 97.5833 241.188 96.125Z" fill="#00569D"/>
</svg>
