<svg width="8" height="8" viewBox="0 0 8 8" fill="none" xmlns="http://www.w3.org/2000/svg">
<path d="M7.87836 7.28672L5.90623 5.30648C6.41331 4.72452 6.69115 3.99228 6.69115 3.23C6.69115 1.449 5.19026 0 3.34556 0C1.50085 0 0 1.449 0 3.23C0 5.011 1.50085 6.46 3.34556 6.46C4.0381 6.46 4.69806 6.25832 5.26227 5.87552L7.24939 7.8708C7.33246 7.95408 7.44416 8 7.56389 8C7.67721 8 7.78468 7.95828 7.8663 7.88244C8.03969 7.72136 8.0452 7.45428 7.87836 7.28672ZM3.34556 0.842608C4.70908 0.842608 5.81836 1.91356 5.81836 3.23C5.81836 4.54644 4.70908 5.6174 3.34556 5.6174C1.98203 5.6174 0.872756 4.54644 0.872756 3.23C0.872756 1.91356 1.98203 0.842608 3.34556 0.842608Z" fill="#333333"/>
</svg>
